<?xml version="1.0" encoding="UTF-8" standalone="no"?>
<svg xmlns:rdf="http://www.w3.org/1999/02/22-rdf-syntax-ns#" xmlns:svg="http://www.w3.org/2000/svg" xmlns="http://www.w3.org/2000/svg" viewBox="0 0 300 190" height="100%" width="100%">
  <defs id="defs5759">
    <filter height="1" y="0" width="1" x="0" id="blur" style="color-interpolation-filters:sRGB">
      <feGaussianBlur id="feGaussianBlur5762" stdDeviation="1.2" />
    </filter>
    <filter height="1.038" y="-0.01881" width="1.066" x="-0.03314" id="filter6337" style="color-interpolation-filters:sRGB">
      <feGaussianBlur id="feGaussianBlur6339" stdDeviation="1.264" />
    </filter>
    <filter height="1.032" y="-0.0161" width="1.094" x="-0.04709" id="filter6355" style="color-interpolation-filters:sRGB">
      <feGaussianBlur id="feGaussianBlur6357" stdDeviation="1.185" />
    </filter>
    <filter height="1.053" y="-0.02626" width="1.116" x="-0.0578" id="filter6385" style="color-interpolation-filters:sRGB">
      <feGaussianBlur id="feGaussianBlur6387" stdDeviation="1.883" />
    </filter>
    <filter height="1.085" y="-0.04272" width="1.062" x="-0.03105" id="filter6415" style="color-interpolation-filters:sRGB">
      <feGaussianBlur id="feGaussianBlur6417" stdDeviation="2.097" />
    </filter>
    <filter height="1.073" y="-0.03634" width="1.036" x="-0.01792" id="filter6433" style="color-interpolation-filters:sRGB">
      <feGaussianBlur id="feGaussianBlur6435" stdDeviation="1.312" />
    </filter>
  </defs>
  <rect transform="matrix(-0.9659,0.2588,-0.2588,-0.9659,8.605,1.843)" rx="27" y="-209.5" x="-247.9" height="54.01" width="180" id="rect6419" style="fill:#000000;fill-opacity:0.2087;stroke:none;stroke-width:10;stroke-linecap:round;stroke-linejoin:round;filter:url(#filter6433)" />
  <rect style="fill:#fe7151;fill-opacity:1;stroke:none;stroke-width:10;stroke-linecap:round;stroke-linejoin:round" id="rect4863" width="180" height="54.01" x="-255.7" y="-213.5" rx="27" transform="matrix(-0.9659,0.2588,-0.2588,-0.9659,0,0)" />
  <path id="path5765" d="m 259.6,66.14 c -5.2,0.2 -16.9,1.7 -28,12.3 -14.8,14.1 -12.3,18 -12.3,18 l -25.7,27.66 c 0,0 -20.8,-7 -24.8,-7.2 -3.9,-0.2 -33.2,8.4 -33.2,8.4 l 0.1,1.2 a 28.5,28.5 0 0 0 -16.6,25.9 28.5,28.5 0 0 0 28.5,28.5 28.5,28.5 0 0 0 3,-0.2 c 1,0.2 2,0.2 2.9,0 5.2,-1 10.3,-2.7 17.4,-6.7 7,-3.9 14.3,-7.5 16.9,-10.5 2.5,-2.9 8,-23.7 8,-23.7 l 11.1,-12.4 28.7,-8.9 c 0,0 10.8,1.8 17.9,-0.6 7,-2.4 27.3,-24.36 27.3,-24.36 L 223.7,110 265.9,66.24 c 0,0 -1,-0.1 -2.7,-0.1 z" style="fill:#2e2e2e;fill-opacity:0.3217;filter:url(#blur)" />
  <path id="path4876" d="m 261.2,64.14 c -5.2,0.2 -16.9,1.7 -28,12.3 -14.8,14.1 -12.3,18 -12.3,18 l -29.3,27.66 c 0,0 -20.8,-7 -24.8,-7.2 -3.9,-0.2 -33.2,8.4 -33.2,8.4 l 0.1,1.2 a 28.5,28.5 0 0 0 -16.6,25.9 28.5,28.5 0 0 0 28.5,28.5 28.5,28.5 0 0 0 3,-0.2 c 1,0.2 2,0.2 2.9,0 5.2,-1 10.3,-2.7 17.4,-6.7 7,-3.9 14.3,-7.5 16.9,-10.5 2.5,-2.9 8,-23.7 8,-23.7 l 11.1,-12.4 28.7,-8.9 c 0,0 10.8,1.8 17.9,-0.6 7,-2.4 27.3,-24.36 27.3,-24.36 L 221.7,108 263.9,64.24 c 0,0 -1,-0.1 -2.7,-0.1 z" style="fill:#6bd771;stroke-width:0.4" />
  <path id="circle4879" d="m 246.6,37.84 -83.1,86.76 a 28.5,28.5 0 0 0 -12,-2.7 28.5,28.5 0 0 0 -28.5,28.5 28.5,28.5 0 0 0 28.5,28.5 28.5,28.5 0 0 0 28.4,-28.5 A 28.5,28.5 0 0 0 177,138 c 6.7,-9.5 29.8,-42.26 37.4,-52.56 8.8,-11.8 35.4,-44.3 35.4,-44.3 l -4.9,-3.3 z" style="fill:#2e2e2e;fill-opacity:0.3217;filter:url(#blur)" />
  <path id="path5769" d="m 244.9,37.84 -83.1,86.76 a 28.5,28.5 0 0 0 -12,-2.7 28.5,28.5 0 0 0 -28.5,28.5 28.5,28.5 0 0 0 28.5,28.5 28.5,28.5 0 0 0 28.4,-28.5 28.5,28.5 0 0 0 -2.9,-12.4 c 6.7,-9.5 29.8,-42.26 37.4,-52.56 8.8,-11.8 35.4,-44.3 35.4,-44.3 l -3.2,-3.3 z" style="fill:#52402c;stroke:none;stroke-width:0.2;stroke-linecap:round;stroke-linejoin:round" />
  <path transform="matrix(0.9897,0,0,1,13.31,1.825)" style="fill:#000000;fill-opacity:0.3246;stroke-width:0.4;filter:url(#filter6337)" d="m 201.9,15.2 c 0,0 -15.5,0.1 -24.4,10.8 -9,10.7 -22.6,46.8 -22.6,47.3 0,0.5 1.4,1.7 1.2,2.9 -0.1,1.2 -3.2,4.8 -3.6,7.4 -0.3,2.6 1.6,4.8 1.1,6.5 -0.5,1.8 -4.7,6.6 -5.5,10 -0.9,3.5 3.2,4.3 2.7,6 -0.5,1.8 -6,2.6 -7.2,5.9 -0.4,1.1 -2,4 -4,7.4 a 28.5,28.5 0 0 0 -0.7,0 28.5,28.5 0 0 0 -28.5,28.5 28.5,28.5 0 0 0 28.5,28.5 28.5,28.5 0 0 0 28.5,-28.5 28.5,28.5 0 0 0 -6.3,-17.9 l 0.2,-0.5 7.9,-24.2 -2.9,-7.8 6.9,-5 28.7,-77.3 z" id="path6323" />
  <path id="path4889" d="m 210.5,17.04 c 0,0 -15.5,0.1 -24.4,10.8 -9,10.7 -22.6,46.8 -22.6,47.3 0,0.5 1.4,1.7 1.2,2.9 -0.1,1.2 -3.2,4.8 -3.6,7.4 -0.3,2.6 1.6,4.8 1.1,6.5 -0.5,1.8 -4.7,6.6 -5.5,9.96 -0.9,3.5 3.2,4.3 2.7,6 -0.5,1.8 -6,2.6 -7.2,5.9 -0.4,1.1 -2,4 -4,7.4 a 28.5,28.5 0 0 0 -0.7,0 28.5,28.5 0 0 0 -28.5,28.5 28.5,28.5 0 0 0 28.5,28.5 28.5,28.5 0 0 0 28.5,-28.5 28.5,28.5 0 0 0 -6.3,-17.9 l 0.2,-0.5 7.9,-24.2 -2.9,-7.76 6.9,-5 28.7,-77.3 z" style="fill:#ddb8e0;stroke-width:0.4" />
  <path style="fill:#000000;fill-opacity:0.2725;stroke:#d8635b;stroke-width:0.4;filter:url(#filter6355)" d="m 166.2,1.844 c -1.3,0 -2.5,0.2 -3.8,0.5 -10.4,2.8 -14.8,12.396 -16.9,27.896 -1.6,11.6 -4.5,66.1 -5.8,92.86 a 28.5,28.5 0 0 0 -18.8,26.8 28.5,28.5 0 0 0 28.5,28.5 28.5,28.5 0 0 0 28.5,-28.5 28.5,28.5 0 0 0 -3.4,-13.5 25.63,25.63 0 0 0 -8,-10.2 c 0,0 -9.2,-8 -8.8,-13.1 0.5,-5.1 5.4,-7.2 5.4,-7.2 0,0 -4.2,-4.1 -3.5,-8.56 0.7,-4.5 5.9,-6.2 5.9,-6.2 0,0 -3.6,-3.4 -3,-7.9 0.7,-4.5 5.7,-6 5.7,-6 0,0 -4.3,-4.5 -4,-8.6 0.4,-4.2 5.1,-6 5.1,-6 0,0 -4.2,-2.8 -3.5,-7.3 0.7,-4.6 4.5,-4.9 4.5,-4.9 0,0 -3.7,-3.8 -3.1,-7.2 0.6,-3.3 5.1,-6.5 5.1,-6.5 0,0 -3.7,-3.1 -3.4,-6.2 0.4,-3.1 4.3,-5.1 4.3,-5.1 0,0 -7.1,-7.1 -3.1,-10.2 4.1,-3.1 9.8,2.2 9.8,2.2 l 1.4,-8.596 c 0,0 -6.6,-7.1 -15.1,-7 z" id="path6341" />
  <path id="path4865" d="m 164.6,1.844 c -1.3,0 -2.5,0.2 -3.8,0.5 -10.4,2.8 -14.8,12.396 -16.9,27.896 -1.6,11.6 -4.5,66.1 -5.8,92.86 a 28.5,28.5 0 0 0 -18.8,26.8 28.5,28.5 0 0 0 28.5,28.5 28.5,28.5 0 0 0 28.5,-28.5 28.5,28.5 0 0 0 -3.4,-13.5 25.63,25.63 0 0 0 -8,-10.2 c 0,0 -9.2,-8 -8.8,-13.1 0.5,-5.1 5.4,-7.2 5.4,-7.2 0,0 -4.2,-4.1 -3.5,-8.56 0.7,-4.5 5.9,-6.2 5.9,-6.2 0,0 -3.6,-3.4 -3,-7.9 0.7,-4.5 5.7,-6 5.7,-6 0,0 -4.3,-4.5 -4,-8.6 0.4,-4.2 5.1,-6 5.1,-6 0,0 -4.2,-2.8 -3.5,-7.3 0.7,-4.6 4.5,-4.9 4.5,-4.9 0,0 -3.7,-3.8 -3.1,-7.2 0.6,-3.3 5.1,-6.5 5.1,-6.5 0,0 -3.7,-3.1 -3.4,-6.2 0.4,-3.1 4.3,-5.1 4.3,-5.1 0,0 -7.1,-7.1 -3.1,-10.2 4.1,-3.1 9.8,2.2 9.8,2.2 l 1.4,-8.596 c 0,0 -6.6,-7.1 -15.1,-7 z" style="fill:#fa8072;stroke:#d8635b;stroke-width:0.4" />
  <path transform="matrix(0.9839,0,0,1,13.24,1.818)" style="fill:#000000;fill-opacity:0.1507;stroke:#5b80d8;stroke-width:0.4;stroke-linecap:round;stroke-linejoin:round;filter:url(#filter6385)" d="m 98.82,4.301 -8.9,2.1 -2.1,8.999 c 0,0 1.4,8.9 2.4,12.7 1.1,3.8 9,27.8 9,27.8 l 5.48,4.2 18.1,63.4 a 28.5,28.5 0 0 0 -13.8,24.4 28.5,28.5 0 0 0 28.5,28.5 28.5,28.5 0 0 0 28.5,-28.5 28.5,28.5 0 0 0 -28.5,-28.5 28.5,28.5 0 0 0 -1.7,0.1 l -19.1,-63.6 2.4,-4.4 c 0,0 0,-1.1 -1,-4.5 C 117.1,43.6 105,9.801 105,9.801 l -6.18,-5.5 z" id="path6359" />
  <path id="path4870" d="m 107.4,6.144 -8.87,2.1 -2.1,8.996 c 0,0 1.4,8.9 2.4,12.7 1.1,3.8 8.97,27.8 8.97,27.8 l 5.5,4.2 18.1,63.36 a 28.5,28.5 0 0 0 -13.8,24.4 28.5,28.5 0 0 0 28.5,28.5 28.5,28.5 0 0 0 28.5,-28.5 28.5,28.5 0 0 0 -28.5,-28.5 28.5,28.5 0 0 0 -1.7,0.1 l -19.1,-63.56 2.4,-4.4 c 0,0 0,-1.1 -1,-4.5 -1,-3.4 -13.1,-37.2 -13.1,-37.2 l -6.2,-5.496 z" style="fill:#6495ed;stroke:#5b80d8;stroke-width:0.4;stroke-linecap:round;stroke-linejoin:round" />
  <rect style="fill:#000000;fill-opacity:0.2087;stroke:none;stroke-width:10;stroke-linecap:round;stroke-linejoin:round;filter:url(#filter6415)" id="rect6389" width="180" height="54.01" x="38.29" y="32.02" rx="27" transform="matrix(0.8455,0.5011,-0.4881,0.8679,14.46,1.592)" />
  <rect transform="matrix(0.866,0.5,-0.5,0.866,0,0)" rx="27" y="29.31" x="46.66" height="54.01" width="180" id="rect4861" style="fill:#fe4e37;fill-opacity:1;stroke:none;stroke-width:10;stroke-linecap:round;stroke-linejoin:round" />
  <path d="m 151.9,159.2 -10.3,0 -5.2,-8.9 5.2,-8.9 10.3,0 5.2,8.9 z" id="path4897" style="fill:#52402c;stroke:none;stroke-width:0.2;stroke-linecap:round;stroke-linejoin:round" />
  <path style="fill:#ffffff" id="path5121" d="m 17.65,73.6 c -3.46,4.96 -3.03,11.42 -0.39,16.71 0.1,0.13 0.13,0.25 0.2,0.37 0,0.1 0.1,0.16 0.12,0.23 0,0.1 0.1,0.1 0.1,0.15 0.1,0.1 0.1,0.15 0.14,0.22 0.1,0.15 0.16,0.31 0.25,0.46 0.1,0.1 0.1,0.15 0.15,0.22 0.1,0.15 0.19,0.31 0.28,0.45 0,0.1 0.1,0.15 0.13,0.2 0.14,0.21 0.29,0.43 0.43,0.61 0,0 0,0 0,0 0,0.1 0.1,0.1 0.1,0.1 0.12,0.18 0.25,0.35 0.38,0.53 0.1,0.1 0.1,0.13 0.15,0.17 0.12,0.16 0.23,0.31 0.36,0.45 0,0.1 0.1,0.11 0.13,0.15 0.17,0.2 0.33,0.38 0.5,0.58 0,0 0,0 0,0 0,0 0,0 0,0 0.16,0.17 0.34,0.35 0.51,0.53 0.1,0.1 0.1,0.12 0.16,0.17 0.13,0.13 0.27,0.26 0.4,0.38 0.1,0.1 0.11,0.13 0.16,0.17 0.19,0.18 0.37,0.33 0.56,0.51 0,0 0,0 0,0 0,0.1 0.1,0.1 0.1,0.1 0.16,0.15 0.33,0.3 0.5,0.43 0.1,0.1 0.14,0.12 0.21,0.17 0.14,0.1 0.28,0.23 0.42,0.32 0.1,0.1 0.15,0.13 0.22,0.18 0.16,0.1 0.32,0.22 0.48,0.33 0.1,0.1 0.11,0.1 0.16,0.12 0,0 0.1,0.1 0.1,0.1 0.16,0.1 0.31,0.2 0.47,0.31 0.1,0 0.12,0.1 0.18,0.12 0.24,0.15 0.48,0.3 0.72,0.43 0.1,0.1 0.13,0.1 0.2,0.12 0.17,0.1 0.35,0.2 0.54,0.3 0.1,0.11 0.19,0.11 0.29,0.11 0.12,0.1 0.25,0.2 0.39,0.3 0,0 0.1,0 0.1,0 0.1,0.1 0.1,0.1 0.15,0.1 0.2,0.1 0.4,0.2 0.6,0.3 0.1,0 0.1,0 0.14,0.1 0.23,0.1 0.46,0.2 0.71,0.3 0.1,0 0.11,0 0.17,0 0.21,0.1 0.44,0.2 0.67,0.2 0.1,0 0.1,0 0.1,0.1 0.25,0.1 0.49,0.2 0.74,0.3 0.1,0 0.12,0 0.19,0.1 0.25,0.1 0.51,0.2 0.76,0.2 16.76,3.1 21.62,-9.96 21.62,-9.96 -4.08,5.31 -11.32,6.72 -18.17,5.16 -0.27,-0.1 -0.51,-0.15 -0.78,-0.22 -0.1,0 -0.12,0 -0.18,-0.1 -0.25,-0.1 -0.5,-0.15 -0.75,-0.26 -0.1,0 -0.1,0 -0.1,0 -0.21,-0.1 -0.43,-0.17 -0.65,-0.24 -0.1,-0.1 -0.12,-0.1 -0.18,-0.1 -0.23,-0.11 -0.47,-0.18 -0.7,-0.28 -0.1,0 -0.1,-0.1 -0.14,-0.1 -0.19,-0.1 -0.39,-0.18 -0.59,-0.28 -0.1,0 -0.11,-0.1 -0.17,-0.1 -0.15,-0.1 -0.3,-0.15 -0.46,-0.23 -0.1,-0.1 -0.2,-0.12 -0.3,-0.17 -0.19,-0.11 -0.37,-0.21 -0.55,-0.31 -0.1,-0.1 -0.13,-0.1 -0.18,-0.1 -0.25,-0.14 -0.49,-0.3 -0.72,-0.45 -0.1,0 -0.13,-0.1 -0.19,-0.13 -0.18,-0.1 -0.35,-0.22 -0.51,-0.31 -0.1,-0.1 -0.11,-0.1 -0.16,-0.13 -0.21,-0.2 -0.38,-0.32 -0.53,-0.44 -0.1,-0.1 -0.15,-0.11 -0.22,-0.16 -0.15,-0.12 -0.29,-0.22 -0.43,-0.35 -0.1,-0.1 -0.13,-0.1 -0.2,-0.15 -0.18,-0.14 -0.36,-0.29 -0.53,-0.45 0,0 0,-0.1 -0.1,-0.1 -0.2,-0.17 -0.39,-0.35 -0.58,-0.52 -0.1,-0.1 -0.1,-0.11 -0.16,-0.16 -0.14,-0.15 -0.28,-0.27 -0.41,-0.42 -0.1,-0.1 -0.12,-0.11 -0.16,-0.16 -0.17,-0.17 -0.34,-0.35 -0.51,-0.52 0,0 0,0 0,-0.1 -0.17,-0.2 -0.34,-0.38 -0.51,-0.58 0,-0.1 -0.1,-0.1 -0.11,-0.15 -0.17,-0.1 -0.3,-0.25 -0.42,-0.4 0,-0.1 -0.1,-0.1 -0.13,-0.15 -0.13,-0.2 -0.26,-0.37 -0.41,-0.57 -3.8,-5.2 -5.18,-12.36 -2.13,-18.24" />
  <path style="fill:#ffffff" id="path5123" d="m 28.38,69.41 c -2.5,3.59 -2.36,8.4 -0.41,12.21 0.33,0.64 0.69,1.26 1.11,1.85 0.37,0.53 0.78,1.17 1.28,1.61 0.18,0.2 0.36,0.39 0.56,0.57 0.1,0.1 0.1,0.1 0.15,0.15 0.18,0.18 0.37,0.35 0.57,0.52 0,0 0,0 0.1,0 0,0 0,0 0,0 0.22,0.21 0.44,0.39 0.67,0.58 0.1,0 0.1,0.1 0.16,0.1 0.22,0.18 0.45,0.35 0.7,0.53 0,0 0,0 0,0 0.1,0.1 0.21,0.13 0.31,0.2 0.1,0.1 0.1,0.1 0.15,0.1 0.18,0.12 0.35,0.23 0.52,0.32 0.1,0 0.1,0 0.1,0 0.16,0.1 0.31,0.17 0.46,0.27 0.1,0 0.11,0.1 0.16,0.1 0.12,0.1 0.22,0.13 0.33,0.18 0,0 0.1,0 0.1,0 0.23,0.13 0.45,0.23 0.67,0.33 0.1,0 0.11,0 0.15,0.1 0.18,0.1 0.36,0.14 0.55,0.22 0.1,0.1 0.16,0.1 0.24,0.1 0.17,0.1 0.33,0.1 0.5,0.15 0.1,0.1 0.15,0.1 0.23,0.1 0.24,0.1 0.47,0.17 0.72,0.23 12.9,2.12 15.88,-7.81 15.88,-7.81 -2.68,3.87 -7.89,5.72 -13.43,4.28 -0.25,-0.1 -0.5,-0.13 -0.72,-0.2 -0.1,-0.1 -0.15,-0.1 -0.23,-0.1 -0.17,-0.1 -0.35,-0.13 -0.5,-0.18 -0.1,-0.1 -0.18,-0.1 -0.25,-0.1 -0.17,-0.1 -0.35,-0.13 -0.52,-0.2 -0.1,-0.1 -0.11,-0.1 -0.16,-0.1 -0.24,-0.1 -0.46,-0.2 -0.68,-0.33 -0.12,-0.1 -0.23,-0.1 -0.34,-0.14 -0.1,-0.1 -0.13,-0.1 -0.19,-0.11 -0.14,-0.1 -0.29,-0.17 -0.43,-0.25 -0.1,0 -0.1,-0.1 -0.1,-0.1 -0.18,-0.1 -0.36,-0.21 -0.52,-0.32 -0.1,0 -0.1,-0.1 -0.17,-0.1 -0.1,-0.1 -0.21,-0.14 -0.32,-0.22 -0.23,-0.16 -0.47,-0.34 -0.7,-0.51 -0.1,-0.1 -0.1,-0.1 -0.16,-0.12 -2.51,-1.87 -4.43,-4.49 -5.35,-7.46 -0.95,-3.08 -0.74,-6.54 0.91,-9.35" />
  <path style="fill:#ffffff" id="path5125" d="m 37.4,66.28 c -1.47,2.16 -1.61,4.86 -0.59,7.25 1.08,2.55 3.28,4.55 5.86,5.49 0.1,0 0.22,0.1 0.33,0.1 0.1,0 0.1,0.1 0.15,0.1 0.14,0.1 0.29,0.11 0.44,0.14 7.11,1.37 9.07,-3.66 9.57,-4.4 -1.67,2.43 -4.53,3.03 -8.02,2.18 -0.27,-0.11 -0.6,-0.2 -0.84,-0.3 -0.35,-0.14 -0.68,-0.27 -1.01,-0.43 -0.62,-0.3 -1.22,-0.67 -1.75,-1.08 -3.13,-2.37 -5.07,-6.89 -3.03,-10.57" />
</svg>
