<?xml version="1.0" encoding="UTF-8" standalone="no"?>
<!-- Created with Inkscape (http://www.inkscape.org/) -->
<svg
   xmlns:svg="http://www.w3.org/2000/svg"
   xmlns="http://www.w3.org/2000/svg"
   version="1.0"
   width="600"
   height="47.108814"
   id="svg2405">
  <defs
     id="defs2407" />
  <g
     transform="translate(-37.14286,-574.52206)"
     id="layer1">
    <g
       transform="matrix(3.2070812,0,0,3.2070812,37.14286,574.52206)"
       id="g3">
	<path
   d="M 13.581,5.128 C 13.581,3.95 13.581,3.326 12.472,3.257 C 11.779,3.188 11.432,3.257 11.432,2.911 C 11.432,2.703 11.64,2.426 12.264,2.426 C 12.541,2.426 14.55,2.564 15.312,2.564 L 17.945,2.633 C 19.053,2.633 19.954,2.425 20.578,2.425 C 20.855,2.425 20.924,2.494 20.994,2.771 C 21.133,3.187 21.271,4.087 21.341,4.85 C 21.341,5.543 20.856,5.405 20.648,4.85 C 20.44,4.296 20.024,3.949 19.54,3.741 C 18.986,3.533 18.5,3.533 18.016,3.533 L 16.769,3.533 C 16.007,3.533 15.591,3.533 15.591,4.572 L 15.591,6.582 C 15.591,6.998 15.66,7.206 16.007,7.206 L 16.839,7.206 C 18.294,7.206 18.779,7.137 18.987,6.721 C 19.195,6.444 19.126,6.167 19.264,5.751 C 19.333,5.405 19.818,5.543 19.818,5.82 C 19.818,6.166 19.818,7.067 19.818,7.691 C 19.818,8.384 19.956,9.284 19.956,9.7 C 19.956,10.116 19.471,10.047 19.332,9.631 C 19.263,9.355 19.193,8.592 18.986,8.384 C 18.709,8.107 18.57,8.176 16.838,8.176 L 16.006,8.176 C 15.659,8.176 15.59,8.245 15.59,8.661 L 15.59,10.947 C 15.59,11.848 15.659,12.402 15.937,12.679 C 16.283,13.095 16.838,13.234 17.738,13.234 C 18.57,13.234 19.54,13.026 20.025,12.818 C 20.649,12.61 20.857,12.195 21.411,11.294 C 21.688,10.879 21.896,10.602 22.104,10.602 C 22.312,10.602 22.173,11.156 22.173,11.502 C 22.034,11.987 21.688,13.304 21.272,13.858 C 21.134,14.204 20.787,14.273 20.094,14.273 C 19.332,14.273 17.807,14.204 16.63,14.204 L 14.621,14.135 C 13.789,14.135 12.473,14.274 12.126,14.274 C 11.571,14.274 11.433,13.998 11.433,13.927 C 11.433,13.651 11.641,13.512 12.196,13.443 C 13.235,13.235 13.582,13.027 13.582,11.641 L 13.582,5.128 L 13.581,5.128 z"
   id="path5"
   style="fill:#005f4e;fill-rule:evenodd" />

	<path
   d="M 60.353,4.92 C 60.492,4.92 60.561,5.058 60.699,5.267 C 60.976,5.821 61.462,6.86 61.808,7.761 C 62.016,8.315 61.947,8.523 61.531,8.523 L 59.313,8.523 C 58.62,8.523 58.62,8.315 58.759,7.899 C 59.036,7.275 59.729,5.82 60.007,5.335 C 60.145,5.128 60.283,4.989 60.353,4.92 L 60.353,4.92 z M 67.143,14.274 C 67.697,14.274 68.806,14.135 69.43,14.135 C 70.262,14.135 70.954,14.274 71.301,14.274 C 71.509,14.274 71.786,14.135 71.786,13.859 C 71.786,13.582 71.509,13.512 71.093,13.443 C 70.123,13.304 69.985,12.958 69.915,11.572 C 69.915,11.572 69.915,9.701 69.915,8.662 C 69.915,7.553 69.915,6.375 69.985,5.959 C 69.985,5.613 70.054,5.267 70.677,5.89 C 71.024,6.306 72.479,7.969 73.38,9.008 C 74.281,9.978 76.359,12.611 77.399,13.72 C 77.884,14.204 78.023,14.274 78.231,14.274 C 78.577,14.274 78.439,13.927 78.439,13.374 C 78.439,13.374 78.439,9.84 78.439,8.593 C 78.439,7.346 78.439,5.267 78.439,5.267 C 78.439,3.95 78.578,3.396 79.687,3.327 C 80.033,3.258 80.449,3.188 80.449,2.842 C 80.449,2.634 80.172,2.426 79.894,2.426 C 79.34,2.426 78.855,2.564 78.162,2.564 C 77.331,2.564 76.222,2.426 75.945,2.426 C 75.668,2.426 75.391,2.564 75.391,2.842 C 75.391,3.119 75.737,3.188 76.083,3.258 C 77.053,3.397 77.607,3.743 77.607,5.059 L 77.676,10.256 C 77.676,10.741 77.537,10.88 77.052,10.256 C 76.775,10.048 74.557,7.415 74.211,7.068 C 73.934,6.652 71.439,3.811 70.954,3.118 C 70.746,2.91 70.469,2.426 70.053,2.426 C 69.499,2.426 69.36,2.564 68.737,2.564 C 67.975,2.564 67.975,2.426 67.49,2.426 C 67.213,2.426 66.935,2.564 66.935,2.772 C 66.935,3.118 67.628,3.257 68.044,3.465 C 68.945,3.881 68.945,4.297 68.945,5.128 C 69.014,5.959 68.945,7.137 68.945,8.038 C 68.945,8.87 68.945,10.394 68.806,11.988 C 68.737,13.096 68.321,13.443 67.42,13.443 C 66.45,13.443 65.896,12.542 65.618,11.711 C 65.202,10.603 64.163,8.177 63.609,6.93 C 63.124,5.96 62.431,4.367 61.669,3.119 C 61.253,2.288 61.045,2.079 60.907,2.079 C 60.699,2.079 60.491,2.426 60.283,2.842 C 59.521,4.158 58.689,5.891 57.581,7.969 C 56.68,9.84 55.987,11.295 55.71,11.78 C 55.156,12.888 54.878,13.443 53.909,13.443 C 53.216,13.443 52.523,13.235 52.523,12.264 C 52.385,9.701 52.315,7.137 52.315,4.504 C 52.315,3.811 52.523,3.534 53.008,3.395 C 53.493,3.256 53.909,3.395 54.186,3.187 C 54.394,3.049 54.463,2.494 53.909,2.494 C 53.632,2.494 53.285,2.563 52.523,2.563 C 52.107,2.563 51.969,2.494 51.276,2.494 C 51.137,2.494 50.93,2.494 50.652,2.841 C 50.444,3.118 50.236,3.395 49.959,3.88 C 49.543,4.573 47.188,9.077 47.188,9.077 C 46.98,9.493 46.703,10.047 46.495,10.393 C 46.356,10.74 46.149,10.878 45.871,10.393 C 44.97,8.8 43.03,5.197 42.96,4.989 C 42.198,3.673 41.782,2.772 41.297,2.564 C 40.951,2.426 40.604,2.495 39.981,2.495 C 39.288,2.495 39.288,2.426 38.733,2.426 C 37.694,2.426 37.902,3.118 38.179,3.188 C 38.595,3.396 38.872,3.396 39.219,3.535 C 39.635,3.743 39.843,4.089 39.912,4.367 C 40.05,4.92 40.12,6.929 40.05,8.176 C 39.981,10.047 39.911,11.155 39.773,12.264 C 39.704,13.235 39.357,13.235 38.526,13.443 C 38.179,13.443 37.833,13.582 37.833,13.859 C 37.833,14.066 37.972,14.274 38.318,14.274 C 38.942,14.274 39.704,14.135 40.258,14.135 C 40.882,14.135 41.575,14.274 42.198,14.274 C 42.821,14.274 42.96,13.651 42.129,13.512 C 41.436,13.443 40.882,13.235 40.882,12.057 C 40.882,10.533 40.882,9.078 40.882,8.038 C 40.951,7.206 40.951,6.583 41.021,6.375 C 41.021,6.098 41.229,6.098 41.367,6.236 C 41.921,6.929 42.614,8.523 43.307,9.908 C 43.653,10.601 44.762,12.749 45.108,13.581 C 45.455,14.343 45.87,14.135 46.148,13.581 C 46.772,12.402 47.464,10.947 47.811,10.116 C 48.365,9.077 48.989,7.829 49.266,7.275 C 49.543,6.651 49.82,6.235 49.959,6.028 C 50.097,5.82 50.306,5.543 50.444,6.028 C 50.513,6.79 50.513,11.987 50.513,11.987 C 50.513,12.957 50.374,13.234 49.197,13.511 C 48.643,13.58 48.365,14.273 49.266,14.273 C 49.751,14.273 50.86,14.134 51.414,14.134 C 52.107,14.134 52.522,14.273 53.285,14.273 C 54.255,14.273 55.086,14.134 55.848,14.134 C 56.68,14.134 57.442,14.273 57.788,14.273 C 58.065,14.273 58.342,14.134 58.342,13.858 C 58.342,13.581 57.995,13.511 57.649,13.442 C 56.679,13.303 56.332,13.165 56.956,11.71 L 57.857,9.839 C 58.065,9.493 58.134,9.423 58.55,9.423 L 61.806,9.423 C 62.291,9.423 62.499,9.423 62.707,9.839 L 63.539,11.71 C 63.955,12.749 63.955,13.373 62.915,13.442 C 62.568,13.511 62.222,13.65 62.222,13.858 C 62.222,14.134 62.499,14.273 62.846,14.273 C 63.192,14.273 64.093,14.134 64.925,14.134 C 65.688,14.135 66.658,14.274 67.143,14.274 L 67.143,14.274 z"
   id="path7"
   style="fill:#005f4e;fill-rule:evenodd" />

	<path
   d="M 10.809,13.79 C 10.67,14.066 10.532,14.274 10.255,14.274 C 9.909,14.274 6.513,14.135 5.751,14.135 C 4.919,14.135 1.247,14.274 0.762,14.274 C 0.485,14.274 0,14.135 0,13.927 C 0,13.581 0.624,13.443 0.97,13.373 C 2.079,13.234 2.356,12.541 2.356,11.225 L 2.356,2.633 C 2.287,1.317 2.287,0.97 1.178,0.832 C 0.416,0.763 0.208,0.763 0.208,0.416 C 0.208,0.139 0.555,0.069 0.832,0.069 C 1.317,0.069 2.426,0.208 3.188,0.208 C 4.02,0.208 5.475,0.069 5.821,0.069 C 6.029,0.069 6.306,0.208 6.306,0.485 C 6.306,0.693 6.029,0.831 5.613,0.831 C 4.643,1.04 4.435,1.317 4.435,2.633 L 4.435,11.71 C 4.435,12.334 4.573,13.165 5.751,13.165 L 6.86,13.165 C 8.661,13.165 9.77,12.818 10.602,11.363 C 10.948,10.809 11.364,10.463 11.71,10.601 C 11.987,10.67 11.779,11.155 11.641,11.501 C 11.433,11.918 11.017,13.166 10.809,13.79 L 10.809,13.79 z"
   id="path9"
   style="fill:#005f4e;fill-rule:evenodd" />

	<path
   d="M 35.2,4.781 C 35.2,3.465 35.339,3.395 36.448,3.326 C 36.794,3.257 37.21,3.187 37.21,2.841 C 37.21,2.633 36.933,2.425 36.655,2.425 C 36.17,2.425 35.062,2.563 34.299,2.563 C 33.468,2.563 32.22,2.425 31.874,2.425 C 31.666,2.425 31.389,2.563 31.389,2.841 C 31.389,3.118 31.666,3.187 32.082,3.257 C 33.052,3.396 33.26,3.742 33.26,5.058 L 33.26,6.375 C 33.26,6.86 33.191,6.929 32.29,6.929 C 32.29,6.929 31.112,6.998 29.934,6.998 C 28.687,6.998 27.717,6.929 27.717,6.929 C 26.816,6.929 26.747,6.86 26.747,6.375 L 26.747,5.058 C 26.747,3.742 26.955,3.395 27.925,3.257 C 28.341,3.188 28.618,3.118 28.618,2.841 C 28.618,2.564 28.41,2.425 28.133,2.425 C 27.787,2.425 26.54,2.563 25.708,2.563 C 24.946,2.563 23.837,2.425 23.352,2.425 C 23.075,2.425 22.728,2.563 22.728,2.771 C 22.728,3.117 23.005,3.187 23.698,3.256 C 24.807,3.325 24.807,3.672 24.876,5.057 L 24.876,11.64 C 24.807,13.026 24.668,13.234 23.56,13.372 C 23.144,13.441 22.728,13.58 22.728,13.926 C 22.728,14.134 23.074,14.273 23.352,14.273 C 23.837,14.273 24.946,14.134 25.708,14.134 C 26.54,14.134 27.787,14.273 28.133,14.273 C 28.41,14.273 28.618,14.134 28.618,13.858 C 28.618,13.581 28.341,13.511 27.925,13.442 C 26.955,13.303 26.747,12.957 26.747,11.64 L 26.747,8.87 C 26.747,8.385 26.816,8.315 27.717,8.315 C 27.717,8.315 28.757,8.246 29.865,8.246 C 31.043,8.246 32.29,8.315 32.29,8.315 C 33.191,8.315 33.26,8.384 33.26,8.87 L 33.26,11.641 C 33.26,12.957 33.052,13.304 32.082,13.443 C 31.666,13.512 31.389,13.582 31.389,13.859 C 31.389,14.135 31.666,14.274 31.874,14.274 C 32.221,14.274 33.468,14.135 34.299,14.135 C 35.062,14.135 36.17,14.274 36.655,14.274 C 36.932,14.274 37.279,14.135 37.279,13.927 C 37.279,13.581 36.863,13.443 36.448,13.373 C 35.339,13.234 35.2,13.026 35.2,11.641 L 35.2,4.781 L 35.2,4.781 z"
   id="path11"
   style="fill:#005f4e;fill-rule:evenodd" />

	<path
   d="M 126.595,8.454 C 126.595,12.196 123.962,14.482 119.944,14.482 C 116.34,14.482 113.43,12.264 113.43,8.592 C 113.43,4.989 116.132,2.356 119.805,2.356 C 124.378,2.356 126.595,5.058 126.595,8.454 L 126.595,8.454 z M 115.786,8.038 C 115.786,10.671 117.033,13.651 120.151,13.651 C 122.368,13.651 124.17,12.472 124.17,8.731 C 124.17,5.821 122.646,3.188 119.805,3.188 C 118.003,3.188 115.786,4.296 115.786,8.038 L 115.786,8.038 z"
   id="path13"
   style="fill:#005f4e;fill-rule:evenodd" />

	<path
   d="M 151.679,4.781 C 151.679,3.465 151.818,3.395 152.926,3.326 C 153.342,3.257 153.689,3.187 153.689,2.841 C 153.689,2.633 153.412,2.425 153.134,2.425 C 152.649,2.425 151.54,2.563 150.778,2.563 C 149.947,2.563 148.7,2.425 148.423,2.425 C 148.146,2.425 147.868,2.563 147.868,2.841 C 147.868,3.118 148.215,3.187 148.561,3.257 C 149.6,3.396 149.739,3.742 149.739,5.058 L 149.739,6.375 C 149.739,6.86 149.67,6.929 148.769,6.929 C 148.769,6.929 147.66,6.998 146.413,6.998 C 145.166,6.998 144.196,6.929 144.196,6.929 C 143.295,6.929 143.295,6.86 143.295,6.375 L 143.295,5.058 C 143.295,3.742 143.434,3.395 144.474,3.257 C 144.82,3.188 145.166,3.118 145.166,2.841 C 145.166,2.564 144.889,2.425 144.612,2.425 C 144.265,2.425 143.018,2.563 142.256,2.563 C 141.494,2.563 140.385,2.425 139.901,2.425 C 139.624,2.425 139.208,2.563 139.208,2.771 C 139.208,3.117 139.485,3.187 140.178,3.256 C 141.287,3.325 141.287,3.672 141.426,5.057 L 141.426,11.64 C 141.287,13.026 141.149,13.234 140.039,13.372 C 139.693,13.441 139.208,13.58 139.208,13.926 C 139.208,14.134 139.624,14.273 139.901,14.273 C 140.385,14.273 141.495,14.134 142.256,14.134 C 143.019,14.134 144.266,14.273 144.612,14.273 C 144.888,14.273 145.166,14.134 145.166,13.858 C 145.166,13.581 144.819,13.511 144.474,13.442 C 143.434,13.303 143.295,12.957 143.295,11.64 L 143.295,8.87 C 143.295,8.385 143.295,8.315 144.196,8.315 C 144.196,8.315 145.235,8.246 146.413,8.246 C 147.522,8.246 148.769,8.315 148.769,8.315 C 149.669,8.315 149.739,8.384 149.739,8.87 L 149.739,11.641 C 149.739,12.957 149.6,13.304 148.561,13.443 C 148.214,13.512 147.868,13.582 147.868,13.859 C 147.868,14.135 148.145,14.274 148.423,14.274 C 148.701,14.274 149.947,14.135 150.778,14.135 C 151.541,14.135 152.649,14.274 153.134,14.274 C 153.411,14.274 153.827,14.135 153.827,13.927 C 153.827,13.581 153.342,13.443 152.995,13.373 C 151.887,13.234 151.679,13.026 151.679,11.641 L 151.679,4.781 L 151.679,4.781 z"
   id="path15"
   style="fill:#005f4e;fill-rule:evenodd" />

	<path
   d="M 156.46,5.128 C 156.46,3.95 156.46,3.326 155.351,3.257 C 154.728,3.188 154.312,3.257 154.312,2.911 C 154.312,2.703 154.589,2.426 155.213,2.426 C 155.489,2.426 157.499,2.564 158.261,2.564 L 160.895,2.633 C 162.003,2.633 162.834,2.564 163.528,2.564 C 163.667,2.564 163.805,2.703 163.805,2.911 C 163.944,3.465 164.082,4.227 164.221,4.92 C 164.29,5.544 163.805,5.405 163.597,4.851 C 163.389,4.297 162.905,3.95 162.489,3.742 C 161.934,3.534 161.38,3.534 160.895,3.534 L 159.648,3.534 C 158.885,3.534 158.539,3.534 158.539,4.573 L 158.539,6.583 C 158.539,6.999 158.539,7.207 158.955,7.207 L 159.717,7.207 C 161.173,7.207 161.657,7.138 161.865,6.722 C 162.073,6.445 162.073,6.168 162.142,5.752 C 162.281,5.406 162.766,5.544 162.766,5.821 C 162.766,6.167 162.766,7.137 162.766,7.761 C 162.766,8.454 162.834,9.355 162.834,9.701 C 162.834,10.117 162.28,9.978 162.211,9.632 C 162.142,9.356 162.142,8.593 161.934,8.385 C 161.587,8.108 161.45,8.177 159.716,8.177 L 158.954,8.177 C 158.538,8.177 158.538,8.246 158.538,8.662 L 158.538,10.948 C 158.538,11.849 158.607,12.403 158.815,12.68 C 159.162,13.096 159.786,13.235 160.617,13.235 C 161.517,13.235 162.419,13.027 162.904,12.819 C 163.527,12.611 163.804,12.196 164.358,11.295 C 164.566,10.88 164.774,10.603 164.982,10.603 C 165.19,10.603 165.121,11.157 165.051,11.503 C 164.982,11.988 164.566,13.305 164.22,13.859 C 164.012,14.205 163.665,14.274 163.041,14.274 C 162.279,14.274 160.824,14.205 159.992,14.205 C 159.092,14.136 157.498,14.136 157.498,14.136 C 156.735,14.136 155.419,14.275 155.073,14.275 C 154.449,14.275 154.31,13.999 154.31,13.928 C 154.31,13.652 154.518,13.513 155.142,13.444 C 156.112,13.236 156.458,13.028 156.458,11.642 L 156.458,5.128 L 156.46,5.128 z"
   id="path17"
   style="fill:#005f4e;fill-rule:evenodd" />

	<path
   d="M 105.6,8.107 C 104.7,8.107 104.7,8.107 104.7,7.553 L 104.7,5.058 C 104.7,3.742 104.631,3.326 105.6,3.326 C 106.085,3.326 106.571,3.395 107.055,3.534 C 107.887,3.811 108.649,4.434 108.649,5.543 C 108.649,6.236 108.51,6.79 107.957,7.345 C 107.472,7.83 106.641,8.107 105.947,8.107 L 105.6,8.107 L 105.6,8.107 z M 113.984,13.304 C 114.33,12.957 114.123,12.611 113.707,12.749 C 113.36,12.957 113.222,13.026 112.875,13.026 C 112.46,13.026 111.975,12.749 111.628,12.263 C 111.212,11.709 110.728,10.947 110.312,10.324 C 109.965,9.839 109.204,9.008 108.58,8.73 C 108.304,8.522 108.233,8.453 108.58,8.383 C 109.827,8.106 110.798,7.483 110.798,5.612 C 110.798,3.672 108.996,2.425 107.056,2.425 C 105.809,2.425 104.354,2.494 103.661,2.494 C 102.898,2.494 101.79,2.425 101.235,2.425 C 100.958,2.425 100.611,2.563 100.611,2.771 C 100.611,3.117 100.888,3.256 101.582,3.256 C 102.69,3.256 102.69,3.81 102.69,5.057 L 102.69,11.64 C 102.621,13.026 102.551,13.234 101.443,13.372 C 101.096,13.441 100.611,13.58 100.611,13.926 C 100.611,14.134 100.958,14.273 101.235,14.273 C 101.79,14.273 102.829,14.134 103.661,14.134 C 104.423,14.134 105.67,14.273 106.016,14.273 C 106.293,14.273 106.501,14.134 106.501,13.858 C 106.501,13.581 106.224,13.511 105.877,13.442 C 104.838,13.303 104.699,12.957 104.699,11.64 L 104.699,9.285 C 104.699,8.801 104.699,8.731 105.599,8.731 L 105.807,8.731 C 106.292,8.731 107.123,9.285 107.47,9.839 C 107.955,10.671 108.856,12.057 109.41,12.749 C 110.31,13.858 111.072,14.273 111.835,14.273 C 112.459,14.273 112.943,14.134 113.29,13.858 C 113.568,13.72 113.846,13.443 113.984,13.304 L 113.984,13.304 z"
   id="path19"
   style="fill:#005f4e;fill-rule:evenodd" />

	<path
   d="M 132.831,2.564 C 131.723,2.564 128.188,2.426 127.565,2.426 C 127.357,2.426 127.149,2.703 127.149,2.911 C 127.01,3.327 126.802,4.712 126.664,5.752 C 126.595,6.376 127.149,6.306 127.357,5.752 C 127.565,5.197 128.049,4.435 128.535,4.02 C 129.021,3.605 129.574,3.535 130.059,3.535 L 130.683,3.535 C 131.306,3.535 131.791,3.881 131.791,4.713 L 131.791,11.296 C 131.791,12.612 131.583,13.236 130.475,13.375 C 130.128,13.444 129.644,13.583 129.644,13.929 C 129.644,14.137 129.99,14.276 130.267,14.276 C 130.822,14.276 131.93,14.137 132.692,14.137 C 133.455,14.137 134.84,14.276 135.187,14.276 C 135.394,14.276 135.671,14.137 135.671,13.861 C 135.671,13.584 135.394,13.514 134.979,13.445 C 134.009,13.306 133.801,12.337 133.801,11.366 L 133.801,4.573 C 133.801,3.534 134.216,3.534 134.979,3.534 L 135.533,3.534 C 135.949,3.534 136.573,3.603 136.989,4.019 C 137.473,4.435 138.028,5.197 138.236,5.751 C 138.444,6.305 138.928,6.375 138.859,5.751 C 138.72,4.711 138.512,3.326 138.444,2.91 C 138.375,2.702 138.167,2.425 137.959,2.425 C 137.335,2.426 133.939,2.564 132.831,2.564 L 132.831,2.564 z"
   id="path21"
   style="fill:#005f4e;fill-rule:evenodd" />

	<path
   d="M 94.651,14.343 C 93.127,14.343 91.187,14.135 90.424,14.135 C 89.662,14.135 88.553,14.274 88.069,14.274 C 87.792,14.274 87.445,14.135 87.445,13.927 C 87.445,13.581 87.861,13.443 88.277,13.373 C 89.386,13.234 89.455,13.026 89.525,11.641 L 89.525,2.564 C 89.525,1.386 89.525,0.832 88.416,0.832 C 87.723,0.832 87.446,0.693 87.446,0.347 C 87.445,0.139 87.792,0 88.069,0 C 88.554,0 89.94,0.139 90.702,0.139 C 91.395,0.139 92.504,0.07 93.751,0.07 C 95.969,0.07 99.294,1.179 99.294,3.881 C 99.294,5.336 98.463,6.376 97.147,6.653 C 96.87,6.722 96.8,6.791 97.216,6.93 C 97.908,7.207 98.74,7.692 99.225,8.177 C 99.78,8.732 100.126,9.494 100.126,10.464 C 100.126,12.472 99.018,14.343 94.651,14.343 L 94.651,14.343 z M 93.959,13.304 C 94.651,13.304 95.483,13.235 96.106,12.957 C 97.007,12.61 97.562,11.779 97.562,10.602 C 97.562,9.631 97.354,9.078 96.938,8.731 C 96.591,8.315 96.245,8.107 95.691,7.899 C 95.067,7.622 94.028,7.345 93.335,7.345 L 92.435,7.345 C 91.811,7.345 91.603,7.553 91.603,8.176 L 91.603,11.641 C 91.603,12.749 92.227,13.304 93.335,13.304 L 93.959,13.304 L 93.959,13.304 z M 93.682,6.444 C 94.374,6.444 95.206,6.305 95.83,5.82 C 96.384,5.404 96.73,4.642 96.73,3.88 C 96.73,2.841 96.245,2.148 94.998,1.593 C 94.306,1.247 93.267,1.108 92.573,1.108 C 91.533,1.108 91.603,1.524 91.603,2.84 L 91.603,5.89 C 91.603,6.167 91.672,6.444 92.573,6.444 L 93.682,6.444 L 93.682,6.444 z"
   id="path23"
   style="fill:#005f4e;fill-rule:evenodd" />

	<path
   d="M 170.803,8.107 C 169.903,8.107 169.833,8.107 169.833,7.553 L 169.833,5.058 C 169.833,3.742 169.833,3.326 170.803,3.326 C 171.219,3.326 171.774,3.395 172.189,3.534 C 173.09,3.811 173.783,4.434 173.783,5.543 C 173.783,6.236 173.714,6.79 173.16,7.345 C 172.675,7.83 171.844,8.107 171.15,8.107 L 170.803,8.107 L 170.803,8.107 z M 172.604,9.839 C 173.089,10.671 173.99,12.057 174.544,12.749 C 175.444,13.858 176.276,14.273 176.969,14.273 C 177.662,14.273 178.148,14.134 178.493,13.858 C 178.77,13.65 178.84,13.511 179.117,13.511 C 179.394,13.511 179.671,13.65 180.156,13.926 C 180.849,14.342 181.68,14.689 182.858,14.689 C 185.422,14.689 187.086,12.749 187.086,10.74 C 187.086,9.284 186.393,8.037 184.383,7.275 L 182.028,6.513 C 180.989,6.236 180.365,5.681 180.365,4.781 C 180.365,3.881 181.128,3.049 182.305,3.049 C 182.997,3.049 183.899,3.395 184.383,3.88 C 184.938,4.434 185.284,5.196 185.492,5.751 C 185.699,6.375 186.046,6.375 186.046,5.82 L 185.907,2.494 C 185.907,2.217 185.838,2.148 185.699,2.148 C 185.353,2.148 185.492,2.772 184.937,2.772 C 184.452,2.772 183.621,2.01 182.166,2.01 C 180.156,2.01 178.77,3.742 178.77,5.613 C 178.77,6.999 179.533,8.107 180.917,8.523 L 183.343,9.285 C 184.521,9.701 185.491,10.117 185.491,11.295 C 185.491,12.403 184.382,13.721 182.857,13.721 C 181.818,13.721 180.502,12.958 180.086,12.473 C 179.67,11.919 179.324,11.087 179.186,10.672 C 178.909,9.909 178.354,9.979 178.423,10.672 C 178.492,11.226 178.631,12.127 178.7,12.403 C 178.7,12.75 178.492,12.888 178.215,12.958 C 177.592,13.027 177.107,12.75 176.829,12.265 C 176.414,11.711 175.929,10.949 175.443,10.326 C 175.096,9.841 174.404,9.01 173.78,8.732 C 173.504,8.524 173.433,8.455 173.711,8.385 C 174.96,8.107 176,7.484 176,5.613 C 176,3.673 174.129,2.426 172.188,2.426 C 171.01,2.426 169.417,2.495 168.793,2.495 C 168.03,2.495 166.922,2.426 166.437,2.426 C 166.16,2.426 165.814,2.564 165.814,2.772 C 165.814,3.118 166.09,3.257 166.784,3.257 C 167.892,3.257 167.892,3.811 167.892,5.058 L 167.892,11.641 C 167.823,13.027 167.753,13.235 166.645,13.373 C 166.229,13.442 165.814,13.581 165.814,13.927 C 165.814,14.135 166.16,14.274 166.437,14.274 C 166.922,14.274 168.031,14.135 168.793,14.135 C 169.624,14.135 170.871,14.274 171.218,14.274 C 171.426,14.274 171.703,14.135 171.703,13.859 C 171.703,13.582 171.426,13.512 171.01,13.443 C 170.04,13.304 169.832,12.958 169.832,11.641 L 169.832,9.285 C 169.832,8.801 169.901,8.731 170.802,8.731 L 171.01,8.731 C 171.496,8.731 172.327,9.285 172.604,9.839 L 172.604,9.839 z"
   id="path25"
   style="fill:#005f4e;fill-rule:evenodd" />

</g>
  </g>
</svg>
