<?xml version="1.0" standalone="yes"?>

<svg version="1.1" viewBox="0.0 0.0 789.0734908136483 444.5223097112861" fill="none" stroke="none" stroke-linecap="square" stroke-miterlimit="10" xmlns="http://www.w3.org/2000/svg" xmlns:xlink="http://www.w3.org/1999/xlink"><clipPath id="p.0"><path d="m0 0l789.0735 0l0 444.5223l-789.0735 0l0 -444.5223z" clip-rule="nonzero"></path></clipPath><g clip-path="url(#p.0)"><path fill="#000000" fill-opacity="0.0" d="m0 0l789.0735 0l0 444.5223l-789.0735 0z" fill-rule="nonzero"></path><path fill="#ffd966" d="m197.97507 22.162973l0 0c0 -6.708728 5.438492 -12.147225 12.147217 -12.147225l362.38272 0c3.2216187 0 6.3113403 1.2797928 8.5894165 3.5578394c2.2780151 2.2780466 3.5578003 5.3677406 3.5578003 8.589386l0 48.58744c0 6.708725 -5.4384766 12.147224 -12.147217 12.147224l-362.38272 0l0 0c-6.708725 0 -12.147217 -5.4384995 -12.147217 -12.147224z" fill-rule="nonzero"></path><path stroke="#ffffff" stroke-width="4.0" stroke-linejoin="round" stroke-linecap="butt" d="m197.97507 22.162973l0 0c0 -6.708728 5.438492 -12.147225 12.147217 -12.147225l362.38272 0c3.2216187 0 6.3113403 1.2797928 8.5894165 3.5578394c2.2780151 2.2780466 3.5578003 5.3677406 3.5578003 8.589386l0 48.58744c0 6.708725 -5.4384766 12.147224 -12.147217 12.147224l-362.38272 0l0 0c-6.708725 0 -12.147217 -5.4384995 -12.147217 -12.147224z" fill-rule="nonzero"></path><path fill="#000000" d="m323.46988 63.53669l-13.3125 -34.359375l4.921875 0l8.921875 24.953123q1.078125 3.0 1.8125 5.625q0.796875 -2.8125 1.84375 -5.625l9.28125 -24.953123l4.640625 0l-13.453125 34.359375l-4.65625 0zm37.890625 -3.078125q-2.34375 2.0 -4.515625 2.828125q-2.15625 0.8125 -4.640625 0.8125q-4.109375 0 -6.3125 -2.0q-2.203125 -2.015625 -2.203125 -5.125q0 -1.828125 0.828125 -3.34375q0.84375 -1.515625 2.1875 -2.421875q1.34375 -0.921875 3.03125 -1.390625q1.25 -0.328125 3.75 -0.625q5.109375 -0.609375 7.53125 -1.453125q0.015625 -0.875 0.015625 -1.109375q0 -2.578125 -1.1875 -3.625q-1.625 -1.4375 -4.8125 -1.4375q-2.96875 0 -4.390625 1.046875q-1.421875 1.046875 -2.09375 3.6875l-4.125 -0.5625q0.5625 -2.640625 1.84375 -4.265625q1.296875 -1.640625 3.734375 -2.515625q2.4375 -0.875 5.640625 -0.875q3.1875 0 5.171875 0.75q2.0 0.75 2.9375 1.890625q0.9375 1.125 1.3125 2.859375q0.21875 1.078125 0.21875 3.890625l0 5.625q0 5.890625 0.265625 7.453125q0.265625 1.546875 1.0625 2.984375l-4.40625 0q-0.65625 -1.3125 -0.84375 -3.078125zm-0.34375 -9.421875q-2.296875 0.9375 -6.890625 1.59375q-2.609375 0.375 -3.6875 0.84375q-1.078125 0.46875 -1.671875 1.375q-0.578125 0.90625 -0.578125 2.0q0 1.6875 1.28125 2.8125q1.28125 1.125 3.734375 1.125q2.4375 0 4.328125 -1.0625q1.90625 -1.0625 2.796875 -2.921875q0.6875 -1.421875 0.6875 -4.21875l0 -1.546875zm10.7578125 12.5l0 -24.890625l3.796875 0l0 3.765625q1.453125 -2.640625 2.671875 -3.484375q1.234375 -0.84375 2.71875 -0.84375q2.125 0 4.328125 1.359375l-1.453125 3.90625q-1.546875 -0.90625 -3.09375 -0.90625q-1.375 0 -2.484375 0.828125q-1.09375 0.828125 -1.5625 2.3125q-0.703125 2.25 -0.703125 4.921875l0 13.03125l-4.21875 0zm16.03125 0l0 -24.890625l3.796875 0l0 3.53125q2.734375 -4.09375 7.921875 -4.09375q2.25 0 4.125 0.8125q1.890625 0.796875 2.828125 2.109375q0.9375 1.3125 1.3125 3.125q0.234375 1.171875 0.234375 4.09375l0 15.3125l-4.21875 0l0 -15.140625q0 -2.578125 -0.5 -3.859375q-0.484375 -1.28125 -1.734375 -2.03125q-1.25 -0.765625 -2.9375 -0.765625q-2.703125 0 -4.65625 1.71875q-1.953125 1.703125 -1.953125 6.484375l0 13.59375l-4.21875 0zm26.710938 -29.515625l0 -4.843748l4.21875 0l0 4.843748l-4.21875 0zm0 29.515625l0 -24.890625l4.21875 0l0 24.890625l-4.21875 0zm8.9609375 -7.4375l4.171875 -0.65625q0.34375 2.515625 1.953125 3.859375q1.609375 1.328125 4.484375 1.328125q2.90625 0 4.3125 -1.1875q1.40625 -1.1875 1.40625 -2.78125q0 -1.421875 -1.234375 -2.25q-0.875 -0.5625 -4.3125 -1.421875q-4.640625 -1.171875 -6.4375 -2.03125q-1.796875 -0.859375 -2.71875 -2.359375q-0.921875 -1.515625 -0.921875 -3.34375q0 -1.671875 0.75 -3.078125q0.765625 -1.421875 2.078125 -2.359375q0.984375 -0.734375 2.6875 -1.234375q1.703125 -0.5 3.640625 -0.5q2.9375 0 5.140625 0.84375q2.21875 0.84375 3.265625 2.28125q1.0625 1.4375 1.46875 3.859375l-4.125 0.5625q-0.28125 -1.921875 -1.640625 -3.0q-1.34375 -1.078125 -3.796875 -1.078125q-2.90625 0 -4.15625 0.96875q-1.234375 0.953125 -1.234375 2.234375q0 0.828125 0.515625 1.484375q0.515625 0.671875 1.609375 1.125q0.640625 0.234375 3.734375 1.078125q4.46875 1.1875 6.234375 1.953125q1.78125 0.765625 2.78125 2.21875q1.015625 1.453125 1.015625 3.609375q0 2.109375 -1.234375 3.96875q-1.234375 1.859375 -3.5625 2.890625q-2.3125 1.015625 -5.234375 1.015625q-4.859375 0 -7.40625 -2.015625q-2.53125 -2.015625 -3.234375 -5.984375zm25.6875 7.4375l0 -34.359375l4.21875 0l0 12.328123q2.953125 -3.421875 7.453125 -3.421875q2.765625 0 4.796875 1.09375q2.046875 1.078125 2.921875 3.0q0.875 1.921875 0.875 5.578125l0 15.78125l-4.21875 0l0 -15.78125q0 -3.15625 -1.375 -4.59375q-1.359375 -1.453125 -3.875 -1.453125q-1.875 0 -3.53125 0.984375q-1.640625 0.96875 -2.34375 2.640625q-0.703125 1.65625 -0.703125 4.578125l0 13.625l-4.21875 0z" fill-rule="nonzero"></path><path fill="#ffd966" d="m197.97507 140.22334l0 0c0 -6.708725 5.438492 -12.147232 12.147217 -12.147232l362.38272 0c3.2216187 0 6.3113403 1.2798004 8.5894165 3.557846c2.2780151 2.2780457 3.5578003 5.367737 3.5578003 8.589386l0 48.587433c0 6.708725 -5.4384766 12.147232 -12.147217 12.147232l-362.38272 0l0 0c-6.708725 0 -12.147217 -5.438507 -12.147217 -12.147232z" fill-rule="nonzero"></path><path stroke="#ffffff" stroke-width="4.0" stroke-linejoin="round" stroke-linecap="butt" d="m197.97507 140.22334l0 0c0 -6.708725 5.438492 -12.147232 12.147217 -12.147232l362.38272 0c3.2216187 0 6.3113403 1.2798004 8.5894165 3.557846c2.2780151 2.2780457 3.5578003 5.367737 3.5578003 8.589386l0 48.587433c0 6.708725 -5.4384766 12.147232 -12.147217 12.147232l-362.38272 0l0 0c-6.708725 0 -12.147217 -5.438507 -12.147217 -12.147232z" fill-rule="nonzero"></path><path fill="#000000" d="m318.96207 181.59706l0 -34.359375l4.671875 0l18.046875 26.96875l0 -26.96875l4.359375 0l0 34.359375l-4.671875 0l-18.046875 -27.0l0 27.0l-4.359375 0zm50.789062 -13.484375l0 -4.03125l14.5625 -0.015625l0 12.75q-3.359375 2.671875 -6.921875 4.03125q-3.5625 1.34375 -7.3125 1.34375q-5.0625 0 -9.203125 -2.171875q-4.125 -2.171875 -6.234375 -6.265625q-2.109375 -4.109375 -2.109375 -9.171875q0 -5.015625 2.09375 -9.359375q2.09375 -4.359375 6.03125 -6.46875q3.9375 -2.109375 9.078125 -2.109375q3.71875 0 6.734375 1.21875q3.015625 1.203125 4.71875 3.359375q1.71875 2.15625 2.609375 5.625l-4.109375 1.125q-0.765625 -2.625 -1.921875 -4.125q-1.140625 -1.5 -3.28125 -2.40625q-2.125 -0.90625 -4.734375 -0.90625q-3.109375 0 -5.390625 0.953125q-2.265625 0.953125 -3.671875 2.5q-1.390625 1.546875 -2.15625 3.390625q-1.3125 3.1875 -1.3125 6.921875q0 4.59375 1.578125 7.6875q1.578125 3.09375 4.59375 4.59375q3.03125 1.5 6.4375 1.5q2.953125 0 5.765625 -1.140625q2.8125 -1.140625 4.265625 -2.421875l0 -6.40625l-10.109375 0zm22.039062 13.484375l0 -34.359375l4.546875 0l0 34.359375l-4.546875 0zm12.5078125 0l0 -34.359375l4.671875 0l18.046875 26.96875l0 -26.96875l4.359375 0l0 34.359375l-4.671875 0l-18.046875 -27.0l0 27.0l-4.359375 0zm31.226562 0l13.28125 -17.90625l-11.71875 -16.453125l5.421875 0l6.234375 8.8125q1.9375 2.734375 2.765625 4.21875q1.140625 -1.875 2.71875 -3.921875l6.90625 -9.109375l4.953125 0l-12.078125 16.1875l13.015625 18.171875l-5.625 0l-8.65625 -12.265625q-0.71875 -1.046875 -1.5 -2.296875q-1.140625 1.875 -1.640625 2.578125l-8.625 11.984375l-5.453125 0z" fill-rule="nonzero"></path><path fill="#000000" fill-opacity="0.0" d="m391.31366 82.89764l0 45.16535" fill-rule="nonzero"></path><path stroke="#ffffff" stroke-width="4.0" stroke-linejoin="round" stroke-linecap="butt" d="m391.31366 82.89764l0 45.16535" fill-rule="nonzero"></path><path fill="#ffd966" d="m197.97507 258.28372l0 0c0 -6.70874 5.438492 -12.147232 12.147217 -12.147232l362.38272 0c3.2216187 0 6.3113403 1.2797852 8.5894165 3.5578308c2.2780151 2.2780457 3.5578003 5.367737 3.5578003 8.589401l0 48.587433c0 6.7087097 -5.4384766 12.147217 -12.147217 12.147217l-362.38272 0l0 0c-6.708725 0 -12.147217 -5.438507 -12.147217 -12.147217z" fill-rule="nonzero"></path><path stroke="#ffffff" stroke-width="4.0" stroke-linejoin="round" stroke-linecap="butt" d="m197.97507 258.28372l0 0c0 -6.70874 5.438492 -12.147232 12.147217 -12.147232l362.38272 0c3.2216187 0 6.3113403 1.2797852 8.5894165 3.5578308c2.2780151 2.2780457 3.5578003 5.367737 3.5578003 8.589401l0 48.587433c0 6.7087097 -5.4384766 12.147217 -12.147217 12.147217l-362.38272 0l0 0c-6.708725 0 -12.147217 -5.438507 -12.147217 -12.147217z" fill-rule="nonzero"></path><path fill="#000000" d="m313.59488 299.65744l0 -34.359375l4.671875 0l18.046875 26.96875l0 -26.96875l4.359375 0l0 34.359375l-4.671875 0l-18.046875 -27.0l0 27.0l-4.359375 0zm32.601562 -12.453125q0 -6.90625 3.84375 -10.234375q3.21875 -2.765625 7.828125 -2.765625q5.140625 0 8.390625 3.359375q3.265625 3.359375 3.265625 9.296875q0 4.796875 -1.453125 7.5625q-1.4375 2.75 -4.1875 4.28125q-2.75 1.515625 -6.015625 1.515625q-5.21875 0 -8.453125 -3.34375q-3.21875 -3.359375 -3.21875 -9.671875zm4.34375 0q0 4.78125 2.078125 7.171875q2.09375 2.375 5.25 2.375q3.140625 0 5.21875 -2.390625q2.09375 -2.390625 2.09375 -7.296875q0 -4.609375 -2.09375 -6.984375q-2.09375 -2.390625 -5.21875 -2.390625q-3.15625 0 -5.25 2.375q-2.078125 2.359375 -2.078125 7.140625zm40.070312 12.453125l0 -3.140625q-2.359375 3.703125 -6.953125 3.703125q-2.984375 0 -5.484375 -1.640625q-2.484375 -1.640625 -3.859375 -4.578125q-1.375 -2.953125 -1.375 -6.765625q0 -3.734375 1.234375 -6.765625q1.25 -3.03125 3.734375 -4.640625q2.484375 -1.625 5.5625 -1.625q2.25 0 4.0 0.953125q1.765625 0.9375 2.859375 2.46875l0 -12.328125l4.203125 0l0 34.359375l-3.921875 0zm-13.328125 -12.421875q0 4.78125 2.015625 7.15625q2.015625 2.359375 4.75 2.359375q2.765625 0 4.703125 -2.265625q1.9375 -2.265625 1.9375 -6.90625q0 -5.109375 -1.96875 -7.5q-1.96875 -2.390625 -4.859375 -2.390625q-2.8125 0 -4.703125 2.296875q-1.875 2.296875 -1.875 7.25zm40.914062 4.40625l4.359375 0.53125q-1.03125 3.828125 -3.828125 5.9375q-2.78125 2.109375 -7.109375 2.109375q-5.46875 0 -8.671875 -3.359375q-3.1875 -3.375 -3.1875 -9.4375q0 -6.28125 3.234375 -9.75q3.234375 -3.46875 8.390625 -3.46875q4.984375 0 8.140625 3.40625q3.171875 3.390625 3.171875 9.546875q0 0.375 -0.015625 1.125l-18.5625 0q0.234375 4.109375 2.3125 6.296875q2.09375 2.171875 5.203125 2.171875q2.328125 0 3.96875 -1.21875q1.640625 -1.21875 2.59375 -3.890625zm-13.84375 -6.828125l13.890625 0q-0.28125 -3.140625 -1.59375 -4.703125q-2.015625 -2.4375 -5.21875 -2.4375q-2.90625 0 -4.890625 1.953125q-1.984375 1.9375 -2.1875 5.1875zm24.695312 14.84375l0 -4.8125l4.8125 0l0 4.8125l-4.8125 0zm12.1171875 -29.46875l0 -4.890625l4.21875 0l0 4.890625l-4.21875 0zm-5.34375 39.125l0.796875 -3.578125q1.265625 0.328125 2.0 0.328125q1.28125 0 1.90625 -0.859375q0.640625 -0.859375 0.640625 -4.28125l0 -26.15625l4.21875 0l0 26.25q0 4.59375 -1.1875 6.40625q-1.53125 2.34375 -5.0625 2.34375q-1.71875 0 -3.3125 -0.453125zm14.3515625 -17.09375l4.171875 -0.65625q0.34375 2.515625 1.953125 3.859375q1.609375 1.328125 4.484375 1.328125q2.90625 0 4.3125 -1.1875q1.40625 -1.1875 1.40625 -2.78125q0 -1.421875 -1.234375 -2.25q-0.875 -0.5625 -4.3125 -1.421875q-4.640625 -1.171875 -6.4375 -2.03125q-1.796875 -0.859375 -2.71875 -2.359375q-0.921875 -1.515625 -0.921875 -3.34375q0 -1.671875 0.75 -3.078125q0.765625 -1.421875 2.078125 -2.359375q0.984375 -0.734375 2.6875 -1.234375q1.703125 -0.5 3.640625 -0.5q2.9375 0 5.140625 0.84375q2.21875 0.84375 3.265625 2.28125q1.0625 1.4375 1.46875 3.859375l-4.125 0.5625q-0.28125 -1.921875 -1.640625 -3.0q-1.34375 -1.078125 -3.796875 -1.078125q-2.90625 0 -4.15625 0.96875q-1.234375 0.953125 -1.234375 2.234375q0 0.828125 0.515625 1.484375q0.515625 0.671875 1.609375 1.125q0.640625 0.234375 3.734375 1.078125q4.46875 1.1875 6.234375 1.953125q1.78125 0.765625 2.78125 2.21875q1.015625 1.453125 1.015625 3.609375q0 2.109375 -1.234375 3.96875q-1.234375 1.859375 -3.5625 2.890625q-2.3125 1.015625 -5.234375 1.015625q-4.859375 0 -7.40625 -2.015625q-2.53125 -2.015625 -3.234375 -5.984375z" fill-rule="nonzero"></path><path fill="#000000" fill-opacity="0.0" d="m391.31366 200.95801l0 45.165344" fill-rule="nonzero"></path><path stroke="#ffffff" stroke-width="4.0" stroke-linejoin="round" stroke-linecap="butt" d="m391.31366 200.95801l0 45.165344" fill-rule="nonzero"></path><path fill="#000000" fill-opacity="0.0" d="m139.68373 46.45669l0 0" fill-rule="nonzero"></path><path stroke="#ffffff" stroke-width="2.0" stroke-linejoin="round" stroke-linecap="butt" d="m139.68373 46.45669l0 0" fill-rule="nonzero"></path><path fill="#d9d9d9" d="m28.227146 176.56036l81.528595 0l0 0c10.680466 0 19.338692 8.970108 19.338692 20.035278c0 11.065186 -8.658226 20.035278 -19.338692 20.035278l-81.528595 0l0 0c-10.680466 0 -19.338696 -8.970093 -19.338696 -20.035278c0 -11.06517 8.658229 -20.035278 19.338696 -20.035278z" fill-rule="nonzero"></path><path stroke="#ffffff" stroke-width="2.0" stroke-linejoin="round" stroke-linecap="butt" d="m28.227146 176.56036l81.528595 0l0 0c10.680466 0 19.338692 8.970108 19.338692 20.035278c0 11.065186 -8.658226 20.035278 -19.338692 20.035278l-81.528595 0l0 0c-10.680466 0 -19.338696 -8.970093 -19.338696 -20.035278c0 -11.06517 8.658229 -20.035278 19.338696 -20.035278z" fill-rule="nonzero"></path><path fill="#000000" d="m27.001438 203.51564l0 -13.59375l9.171875 0l0 1.59375l-7.375 0l0 4.21875l6.375 0l0 1.609375l-6.375 0l0 6.171875l-1.796875 0zm17.83348 -3.171875l1.71875 0.21875q-0.40625 1.5 -1.515625 2.34375q-1.09375 0.828125 -2.8125 0.828125q-2.15625 0 -3.421875 -1.328125q-1.265625 -1.328125 -1.265625 -3.734375q0 -2.484375 1.265625 -3.859375q1.28125 -1.375 3.328125 -1.375q1.984375 0 3.234375 1.34375q1.25 1.34375 1.25 3.796875q0 0.140625 -0.015625 0.4375l-7.34375 0q0.09375 1.625 0.921875 2.484375q0.828125 0.859375 2.0625 0.859375q0.90625 0 1.546875 -0.46875q0.65625 -0.484375 1.046875 -1.546875zm-5.484375 -2.703125l5.5 0q-0.109375 -1.234375 -0.625 -1.859375q-0.796875 -0.96875 -2.078125 -0.96875q-1.140625 0 -1.9375 0.78125q-0.78125 0.765625 -0.859375 2.046875zm15.860092 2.703125l1.71875 0.21875q-0.40625 1.5 -1.515625 2.34375q-1.09375 0.828125 -2.8125 0.828125q-2.15625 0 -3.421875 -1.328125q-1.265625 -1.328125 -1.265625 -3.734375q0 -2.484375 1.265625 -3.859375q1.28125 -1.375 3.328125 -1.375q1.984375 0 3.234375 1.34375q1.25 1.34375 1.25 3.796875q0 0.140625 -0.015625 0.4375l-7.34375 0q0.09375 1.625 0.921875 2.484375q0.828125 0.859375 2.0625 0.859375q0.90625 0 1.546875 -0.46875q0.65625 -0.484375 1.046875 -1.546875zm-5.484375 -2.703125l5.5 0q-0.109375 -1.234375 -0.625 -1.859375q-0.796875 -0.96875 -2.078125 -0.96875q-1.140625 0 -1.9375 0.78125q-0.78125 0.765625 -0.859375 2.046875zm15.500721 5.875l0 -1.25q-0.9375 1.46875 -2.7500038 1.46875q-1.171875 0 -2.171875 -0.640625q-0.984375 -0.65625 -1.53125 -1.8125q-0.53125 -1.171875 -0.53125 -2.6875q0 -1.46875 0.484375 -2.671875q0.5 -1.203125 1.46875 -1.84375q0.984375 -0.640625 2.203125 -0.640625q0.890625 0 1.578125 0.375q0.7031288 0.375 1.1406288 0.984375l0 -4.875l1.65625 0l0 13.59375l-1.546875 0zm-5.281254 -4.921875q0 1.890625 0.796875 2.828125q0.8125 0.9375 1.890625 0.9375q1.09375 0 1.8593788 -0.890625q0.765625 -0.890625 0.765625 -2.734375q0 -2.015625 -0.78125 -2.953125q-0.7812538 -0.953125 -1.9218788 -0.953125q-1.109375 0 -1.859375 0.90625q-0.75 0.90625 -0.75 2.859375zm8.594471 1.984375l1.65625 -0.265625q0.140625 1.0 0.765625 1.53125q0.640625 0.515625 1.78125 0.515625q1.15625 0 1.703125 -0.46875q0.5625 -0.46875 0.5625 -1.09375q0 -0.5625 -0.484375 -0.890625q-0.34375 -0.21875 -1.703125 -0.5625q-1.84375 -0.46875 -2.5625 -0.796875q-0.703125 -0.34375 -1.078125 -0.9375q-0.359375 -0.609375 -0.359375 -1.328125q0 -0.65625 0.296875 -1.21875q0.3125 -0.5625 0.828125 -0.9375q0.390625 -0.28125 1.0625 -0.484375q0.671875 -0.203125 1.4375 -0.203125q1.171875 0 2.046875 0.34375q0.875 0.328125 1.28125 0.90625q0.421875 0.5625 0.578125 1.515625l-1.625 0.21875q-0.109375 -0.75 -0.65625 -1.171875q-0.53125 -0.4375 -1.5 -0.4375q-1.15625 0 -1.640625 0.390625q-0.484375 0.375 -0.484375 0.875q0 0.328125 0.203125 0.59375q0.203125 0.265625 0.640625 0.4375q0.25 0.09375 1.46875 0.4375q1.765625 0.46875 2.46875 0.765625q0.703125 0.296875 1.09375 0.875q0.40625 0.578125 0.40625 1.4375q0 0.828125 -0.484375 1.578125q-0.484375 0.734375 -1.40625 1.140625q-0.921875 0.390625 -2.078125 0.390625q-1.921875 0 -2.9375 -0.796875q-1.0 -0.796875 -1.28125 -2.359375zm13.902054 2.9375l5.234375 -13.59375l1.9375 0l5.5625 13.59375l-2.046875 0l-1.59375 -4.125l-5.6875 0l-1.484375 4.125l-1.921875 0zm3.921875 -5.578125l4.609375 0l-1.40625 -3.78125q-0.65625 -1.703125 -0.96875 -2.8125q-0.265625 1.3125 -0.734375 2.59375l-1.5 4.0zm10.021698 5.578125l0 -13.59375l5.125 0q1.359375 0 2.078125 0.125q1.0 0.171875 1.671875 0.640625q0.671875 0.46875 1.078125 1.3125q0.421875 0.84375 0.421875 1.84375q0 1.734375 -1.109375 2.9375q-1.09375 1.203125 -3.984375 1.203125l-3.484375 0l0 5.53125l-1.796875 0zm1.796875 -7.140625l3.515625 0q1.75 0 2.46875 -0.640625q0.734375 -0.65625 0.734375 -1.828125q0 -0.859375 -0.4375 -1.46875q-0.421875 -0.609375 -1.125 -0.796875q-0.453125 -0.125 -1.671875 -0.125l-3.484375 0l0 4.859375zm10.943573 7.140625l0 -13.59375l1.8125 0l0 13.59375l-1.8125 0z" fill-rule="nonzero"></path><path fill="#d9d9d9" d="m28.227146 231.51575l81.528595 0l0 0c10.680466 0 19.338692 8.970093 19.338692 20.035278c0 11.065186 -8.658226 20.035278 -19.338692 20.035278l-81.528595 0l0 0c-10.680466 0 -19.338696 -8.970093 -19.338696 -20.035278c0 -11.065186 8.658229 -20.035278 19.338696 -20.035278z" fill-rule="nonzero"></path><path stroke="#ffffff" stroke-width="2.0" stroke-linejoin="round" stroke-linecap="butt" d="m28.227146 231.51575l81.528595 0l0 0c10.680466 0 19.338692 8.970093 19.338692 20.035278c0 11.065186 -8.658226 20.035278 -19.338692 20.035278l-81.528595 0l0 0c-10.680466 0 -19.338696 -8.970093 -19.338696 -20.035278c0 -11.065186 8.658229 -20.035278 19.338696 -20.035278z" fill-rule="nonzero"></path><path fill="#000000" d="m25.416798 258.471l5.234375 -13.593735l1.9375 0l5.5625 13.593735l-2.046875 0l-1.59375 -4.1249847l-5.6875 0l-1.484375 4.1249847l-1.921875 0zm3.921875 -5.5781097l4.609375 0l-1.40625 -3.78125q-0.65625 -1.703125 -0.96875 -2.8125q-0.265625 1.3125 -0.734375 2.59375l-1.5 4.0zm9.787323 5.5781097l0 -9.85936l1.5 0l0 1.5q0.578125 -1.046875 1.0625 -1.375q0.484375 -0.34375 1.078125 -0.34375q0.84375 0 1.71875 0.546875l-0.578125 1.546875q-0.609375 -0.359375 -1.234375 -0.359375q-0.546875 0 -0.984375 0.328125q-0.421875 0.328125 -0.609375 0.90625q-0.28125 0.890625 -0.28125 1.953125l0 5.1562347l-1.671875 0zm9.884552 -1.5l0.234375 1.484375q-0.703125 0.140625 -1.265625 0.140625q-0.90625 0 -1.40625 -0.28125q-0.5 -0.296875 -0.703125 -0.75q-0.203125 -0.46875 -0.203125 -1.9843597l0 -5.65625l-1.234375 0l0 -1.3125l1.234375 0l0 -2.4375l1.65625 -1.0l0 3.4375l1.6875 0l0 1.3125l-1.6875 0l0 5.75q0 0.71873474 0.078125 0.92185974q0.09375 0.203125 0.296875 0.328125q0.203125 0.125 0.578125 0.125q0.265625 0 0.734375 -0.078125zm1.5426788 -10.187485l0 -1.90625l1.671875 0l0 1.90625l-1.671875 0zm0 11.687485l0 -9.85936l1.671875 0l0 9.85936l-1.671875 0zm10.566696 -3.6093597l1.640625 0.21875q-0.265625 1.6874847 -1.375 2.6562347q-1.109375 0.953125 -2.734375 0.953125q-2.015625 0 -3.25 -1.3125q-1.21875 -1.328125 -1.21875 -3.7968597q0 -1.59375 0.515625 -2.78125q0.53125 -1.203125 1.609375 -1.796875q1.09375 -0.609375 2.359375 -0.609375q1.609375 0 2.625 0.8125q1.015625 0.8125 1.3125 2.3125l-1.625 0.25q-0.234375 -1.0 -0.828125 -1.5q-0.59375 -0.5 -1.421875 -0.5q-1.265625 0 -2.0625 0.90625q-0.78125 0.90625 -0.78125 2.859375q0 1.984375 0.765625 2.8906097q0.765625 0.890625 1.984375 0.890625q0.984375 0 1.640625 -0.59375q0.65625 -0.609375 0.84375 -1.8593597zm2.859375 3.6093597l0 -13.593735l1.6718788 0l0 13.593735l-1.6718788 0zm10.926075 -3.1718597l1.71875 0.21875q-0.40625 1.4999847 -1.515625 2.3437347q-1.09375 0.828125 -2.8125 0.828125q-2.15625 0 -3.421875 -1.328125q-1.265625 -1.328125 -1.265625 -3.7343597q0 -2.484375 1.265625 -3.859375q1.28125 -1.375 3.328125 -1.375q1.984375 0 3.234375 1.34375q1.25 1.34375 1.25 3.796875q0 0.140625 -0.015625 0.4375l-7.34375 0q0.09375 1.625 0.921875 2.4843597q0.828125 0.859375 2.0625 0.859375q0.90625 0 1.546875 -0.46875q0.65625 -0.484375 1.046875 -1.5468597zm-5.484375 -2.703125l5.5 0q-0.109375 -1.234375 -0.625 -1.859375q-0.796875 -0.96875 -2.078125 -0.96875q-1.140625 0 -1.9375 0.78125q-0.78125 0.765625 -0.859375 2.046875zm13.012146 5.8749847l5.234375 -13.593735l1.9375 0l5.5625 13.593735l-2.046875 0l-1.59375 -4.1249847l-5.6875 0l-1.484375 4.1249847l-1.921875 0zm3.921875 -5.5781097l4.609375 0l-1.40625 -3.78125q-0.65625 -1.703125 -0.96875 -2.8125q-0.265625 1.3125 -0.734375 2.59375l-1.5 4.0zm10.021698 5.5781097l0 -13.593735l5.125 0q1.359375 0 2.078125 0.125q1.0 0.171875 1.671875 0.640625q0.671875 0.46875 1.078125 1.3125q0.421875 0.84375 0.421875 1.84375q0 1.734375 -1.109375 2.9375q-1.09375 1.203125 -3.984375 1.203125l-3.484375 0l0 5.5312347l-1.796875 0zm1.796875 -7.1406097l3.515625 0q1.75 0 2.46875 -0.640625q0.734375 -0.65625 0.734375 -1.828125q0 -0.859375 -0.4375 -1.46875q-0.421875 -0.609375 -1.125 -0.796875q-0.453125 -0.125 -1.671875 -0.125l-3.484375 0l0 4.859375zm10.943573 7.1406097l0 -13.593735l1.8125 0l0 13.593735l-1.8125 0z" fill-rule="nonzero"></path><path fill="#d9d9d9" d="m28.227146 286.47113l81.528595 0l0 0c10.680466 0 19.338692 8.970093 19.338692 20.035278c0 11.065186 -8.658226 20.035278 -19.338692 20.035278l-81.528595 0l0 0c-10.680466 0 -19.338696 -8.970093 -19.338696 -20.035278c0 -11.065186 8.658229 -20.035278 19.338696 -20.035278z" fill-rule="nonzero"></path><path stroke="#ffffff" stroke-width="2.0" stroke-linejoin="round" stroke-linecap="butt" d="m28.227146 286.47113l81.528595 0l0 0c10.680466 0 19.338692 8.970093 19.338692 20.035278c0 11.065186 -8.658226 20.035278 -19.338692 20.035278l-81.528595 0l0 0c-10.680466 0 -19.338696 -8.970093 -19.338696 -20.035278c0 -11.065186 8.658229 -20.035278 19.338696 -20.035278z" fill-rule="nonzero"></path><path fill="#000000" d="m29.249256 312.3664l0 -11.453125l1.515625 0l0 10.09375l5.640625 0l0 1.359375l-7.15625 0zm14.4609375 -2.671875l1.453125 0.171875q-0.34375 1.28125 -1.28125 1.984375q-0.921875 0.703125 -2.359375 0.703125q-1.828125 0 -2.890625 -1.125q-1.0625 -1.125 -1.0625 -3.140625q0 -2.09375 1.078125 -3.25q1.078125 -1.15625 2.796875 -1.15625q1.65625 0 2.703125 1.140625q1.0625 1.125 1.0625 3.171875q0 0.125 0 0.375l-6.1875 0q0.078125 1.375 0.765625 2.109375q0.703125 0.71875 1.734375 0.71875q0.78125 0 1.328125 -0.40625q0.546875 -0.40625 0.859375 -1.296875zm-4.609375 -2.28125l4.625 0q-0.09375 -1.046875 -0.53125 -1.5625q-0.671875 -0.8125 -1.734375 -0.8125q-0.96875 0 -1.640625 0.65625q-0.65625 0.640625 -0.71875 1.71875zm7.5703125 5.640625l1.375 0.203125q0.078125 0.640625 0.46875 0.921875q0.53125 0.390625 1.4375 0.390625q0.96875 0 1.5 -0.390625q0.53125 -0.390625 0.71875 -1.09375q0.109375 -0.421875 0.109375 -1.8125q-0.921875 1.09375 -2.296875 1.09375q-1.71875 0 -2.65625 -1.234375q-0.9375 -1.234375 -0.9375 -2.96875q0 -1.1875 0.421875 -2.1875q0.4375 -1.0 1.25 -1.546875q0.828125 -0.546875 1.921875 -0.546875q1.46875 0 2.421875 1.1875l0 -1.0l1.296875 0l0 7.171875q0 1.9375 -0.390625 2.75q-0.390625 0.8125 -1.25 1.28125q-0.859375 0.46875 -2.109375 0.46875q-1.484375 0 -2.40625 -0.671875q-0.90625 -0.671875 -0.875 -2.015625zm1.171875 -4.984375q0 1.625 0.640625 2.375q0.65625 0.75 1.625 0.75q0.96875 0 1.625 -0.734375q0.65625 -0.75 0.65625 -2.34375q0 -1.53125 -0.671875 -2.296875q-0.671875 -0.78125 -1.625 -0.78125q-0.9375 0 -1.59375 0.765625q-0.65625 0.765625 -0.65625 2.265625zm13.3984375 3.265625q-0.78125 0.671875 -1.5 0.953125q-0.71875 0.265625 -1.546875 0.265625q-1.375 0 -2.109375 -0.671875q-0.734375 -0.671875 -0.734375 -1.703125q0 -0.609375 0.28125 -1.109375q0.28125 -0.515625 0.71875 -0.8125q0.453125 -0.3125 1.015625 -0.46875q0.421875 -0.109375 1.25 -0.203125q1.703125 -0.203125 2.515625 -0.484375q0 -0.296875 0 -0.375q0 -0.859375 -0.390625 -1.203125q-0.546875 -0.484375 -1.609375 -0.484375q-0.984375 0 -1.46875 0.359375q-0.46875 0.34375 -0.6875 1.21875l-1.375 -0.1875q0.1875 -0.875 0.609375 -1.421875q0.4375 -0.546875 1.25 -0.828125q0.8125 -0.296875 1.875 -0.296875q1.0625 0 1.71875 0.25q0.671875 0.25 0.984375 0.625q0.3125 0.375 0.4375 0.953125q0.078125 0.359375 0.078125 1.296875l0 1.875q0 1.96875 0.078125 2.484375q0.09375 0.515625 0.359375 1.0l-1.46875 0q-0.21875 -0.4375 -0.28125 -1.03125zm-0.109375 -3.140625q-0.765625 0.3125 -2.296875 0.53125q-0.875 0.125 -1.234375 0.28125q-0.359375 0.15625 -0.5625 0.46875q-0.1875 0.296875 -0.1875 0.65625q0 0.5625 0.421875 0.9375q0.4375 0.375 1.25 0.375q0.8125 0 1.4375 -0.34375q0.640625 -0.359375 0.9375 -0.984375q0.234375 -0.46875 0.234375 -1.40625l0 -0.515625zm9.007816 1.125l1.390625 0.1875q-0.234375 1.421875 -1.171875 2.234375q-0.921875 0.8125 -2.28125 0.8125q-1.703125 0 -2.75 -1.109375q-1.03125 -1.125 -1.03125 -3.203125q0 -1.34375 0.4375 -2.34375q0.453125 -1.015625 1.359375 -1.515625q0.921875 -0.5 1.984375 -0.5q1.359375 0 2.21875 0.6875q0.859375 0.671875 1.09375 1.9375l-1.359375 0.203125q-0.203125 -0.828125 -0.703125 -1.25q-0.484375 -0.421875 -1.1875 -0.421875q-1.0625 0 -1.734375 0.765625q-0.65625 0.75 -0.65625 2.40625q0 1.671875 0.640625 2.4375q0.640625 0.75 1.671875 0.75q0.828125 0 1.375 -0.5q0.5625 -0.515625 0.703125 -1.578125zm2.53125 6.25l-0.15625 -1.328125q0.453125 0.125 0.796875 0.125q0.46875 0 0.75 -0.15625q0.28125 -0.15625 0.46875 -0.4375q0.125 -0.203125 0.421875 -1.046875q0.046875 -0.109375 0.125 -0.34375l-3.140625 -8.3125l1.515625 0l1.71875 4.796875q0.34375 0.921875 0.609375 1.921875q0.234375 -0.96875 0.578125 -1.890625l1.765625 -4.828125l1.40625 0l-3.15625 8.4375q-0.5 1.375 -0.78125 1.890625q-0.375 0.6875 -0.859375 1.015625q-0.484375 0.328125 -1.15625 0.328125q-0.40625 0 -0.90625 -0.171875zm11.4140625 -3.203125l4.40625 -11.453125l1.640625 0l4.6875 11.453125l-1.734375 0l-1.328125 -3.46875l-4.796875 0l-1.25 3.46875l-1.625 0zm3.3125 -4.703125l3.890625 0l-1.203125 -3.171875q-0.546875 -1.453125 -0.8125 -2.375q-0.21875 1.09375 -0.609375 2.1875l-1.265625 3.359375zm8.625 4.703125l0 -11.453125l4.328125 0q1.140625 0 1.734375 0.109375q0.84375 0.140625 1.40625 0.53125q0.578125 0.390625 0.921875 1.109375q0.359375 0.703125 0.359375 1.5625q0 1.453125 -0.9375 2.46875q-0.921875 1.015625 -3.359375 1.015625l-2.9375 0l0 4.65625l-1.515625 0zm1.515625 -6.015625l2.96875 0q1.46875 0 2.078125 -0.546875q0.625 -0.546875 0.625 -1.53125q0 -0.71875 -0.375 -1.234375q-0.359375 -0.515625 -0.953125 -0.671875q-0.375 -0.109375 -1.40625 -0.109375l-2.9375 0l0 4.09375zm9.421875 6.015625l0 -11.453125l1.515625 0l0 11.453125l-1.515625 0z" fill-rule="nonzero"></path><path fill="#d9d9d9" d="m28.227146 341.4265l81.528595 0l0 0c10.680466 0 19.338692 8.970093 19.338692 20.035278c0 11.065155 -8.658226 20.035278 -19.338692 20.035278l-81.528595 0l0 0c-10.680466 0 -19.338696 -8.970123 -19.338696 -20.035278c0 -11.065186 8.658229 -20.035278 19.338696 -20.035278z" fill-rule="nonzero"></path><path stroke="#ffffff" stroke-width="2.0" stroke-linejoin="round" stroke-linecap="butt" d="m28.227146 341.4265l81.528595 0l0 0c10.680466 0 19.338692 8.970093 19.338692 20.035278c0 11.065155 -8.658226 20.035278 -19.338692 20.035278l-81.528595 0l0 0c-10.680466 0 -19.338696 -8.970123 -19.338696 -20.035278c0 -11.065186 8.658229 -20.035278 19.338696 -20.035278z" fill-rule="nonzero"></path><path fill="#000000" d="m33.129475 368.38177l0 -13.59375l4.6875 0q1.578125 0 2.421875 0.1875q1.15625 0.265625 1.984375 0.96875q1.078125 0.921875 1.609375 2.34375q0.53125 1.40625 0.53125 3.21875q0 1.546875 -0.359375 2.75q-0.359375 1.1875 -0.921875 1.984375q-0.5625 0.78125 -1.234375 1.234375q-0.671875 0.4375 -1.625 0.671875q-0.953125 0.234375 -2.1875 0.234375l-4.90625 0zm1.796875 -1.609375l2.90625 0q1.34375 0 2.109375 -0.25q0.765625 -0.25 1.21875 -0.703125q0.640625 -0.640625 1.0 -1.71875q0.359375 -1.078125 0.359375 -2.625q0 -2.125 -0.703125 -3.265625q-0.703125 -1.15625 -1.703125 -1.546875q-0.71875 -0.28125 -2.328125 -0.28125l-2.859375 0l0 10.390625zm17.894821 0.390625q-0.9375 0.796875 -1.796875 1.125q-0.859375 0.3125 -1.84375 0.3125q-1.609375 0 -2.484375 -0.78125q-0.875 -0.796875 -0.875 -2.03125q0 -0.734375 0.328125 -1.328125q0.328125 -0.59375 0.859375 -0.953125q0.53125 -0.359375 1.203125 -0.546875q0.5 -0.140625 1.484375 -0.25q2.03125 -0.25 2.984375 -0.578125q0 -0.34375 0 -0.4375q0 -1.015625 -0.46875 -1.4375q-0.640625 -0.5625 -1.90625 -0.5625q-1.171875 0 -1.734375 0.40625q-0.5625 0.40625 -0.828125 1.46875l-1.640625 -0.234375q0.234375 -1.046875 0.734375 -1.6875q0.515625 -0.640625 1.46875 -0.984375q0.96875 -0.359375 2.25 -0.359375q1.265625 0 2.046875 0.296875q0.78125 0.296875 1.15625 0.75q0.375 0.453125 0.515625 1.140625q0.09375 0.421875 0.09375 1.53125l0 2.234375q0 2.328125 0.09375 2.953125q0.109375 0.609375 0.4375 1.171875l-1.75 0q-0.265625 -0.515625 -0.328125 -1.21875zm-0.140625 -3.71875q-0.90625 0.359375 -2.734375 0.625q-1.03125 0.140625 -1.453125 0.328125q-0.421875 0.1875 -0.65625 0.546875q-0.234375 0.359375 -0.234375 0.796875q0 0.671875 0.5 1.125q0.515625 0.4375 1.484375 0.4375q0.96875 0 1.71875 -0.421875q0.75 -0.4375 1.109375 -1.15625q0.265625 -0.578125 0.265625 -1.671875l0 -0.609375zm7.735092 3.4375l0.234375 1.484375q-0.703125 0.140625 -1.265625 0.140625q-0.90625 0 -1.40625 -0.28125q-0.5 -0.296875 -0.703125 -0.75q-0.203125 -0.46875 -0.203125 -1.984375l0 -5.65625l-1.234375 0l0 -1.3125l1.234375 0l0 -2.4375l1.65625 -1.0l0 3.4375l1.6875 0l0 1.3125l-1.6875 0l0 5.75q0 0.71875 0.078125 0.921875q0.09375 0.203125 0.296875 0.328125q0.203125 0.125 0.578125 0.125q0.265625 0 0.734375 -0.078125zm7.9645576 0.28125q-0.9375 0.796875 -1.796875 1.125q-0.859375 0.3125 -1.84375 0.3125q-1.6093788 0 -2.4843788 -0.78125q-0.875 -0.796875 -0.875 -2.03125q0 -0.734375 0.328125 -1.328125q0.328125 -0.59375 0.859375 -0.953125q0.53125 -0.359375 1.203125 -0.546875q0.5000038 -0.140625 1.4843788 -0.25q2.03125 -0.25 2.984375 -0.578125q0 -0.34375 0 -0.4375q0 -1.015625 -0.46875 -1.4375q-0.640625 -0.5625 -1.90625 -0.5625q-1.171875 0 -1.734375 0.40625q-0.5625038 0.40625 -0.8281288 1.46875l-1.640625 -0.234375q0.234375 -1.046875 0.734375 -1.6875q0.515625 -0.640625 1.46875 -0.984375q0.9687538 -0.359375 2.2500038 -0.359375q1.265625 0 2.046875 0.296875q0.78125 0.296875 1.15625 0.75q0.375 0.453125 0.515625 1.140625q0.09375 0.421875 0.09375 1.53125l0 2.234375q0 2.328125 0.09375 2.953125q0.109375 0.609375 0.4375 1.171875l-1.75 0q-0.265625 -0.515625 -0.328125 -1.21875zm-0.140625 -3.71875q-0.90625 0.359375 -2.734375 0.625q-1.03125 0.140625 -1.453125 0.328125q-0.4218788 0.1875 -0.6562538 0.546875q-0.234375 0.359375 -0.234375 0.796875q0 0.671875 0.5 1.125q0.5156288 0.4375 1.4843788 0.4375q0.96875 0 1.71875 -0.421875q0.75 -0.4375 1.109375 -1.15625q0.265625 -0.578125 0.265625 -1.671875l0 -0.609375zm7.980896 4.9375l5.234375 -13.59375l1.9375 0l5.5625 13.59375l-2.046875 0l-1.59375 -4.125l-5.6875 0l-1.484375 4.125l-1.921875 0zm3.921875 -5.578125l4.609375 0l-1.40625 -3.78125q-0.65625 -1.703125 -0.96875 -2.8125q-0.265625 1.3125 -0.734375 2.59375l-1.5 4.0zm10.021698 5.578125l0 -13.59375l5.125 0q1.359375 0 2.078125 0.125q1.0 0.171875 1.671875 0.640625q0.671875 0.46875 1.078125 1.3125q0.421875 0.84375 0.421875 1.84375q0 1.734375 -1.109375 2.9375q-1.09375 1.203125 -3.984375 1.203125l-3.484375 0l0 5.53125l-1.796875 0zm1.796875 -7.140625l3.515625 0q1.75 0 2.46875 -0.640625q0.734375 -0.65625 0.734375 -1.828125q0 -0.859375 -0.4375 -1.46875q-0.421875 -0.609375 -1.125 -0.796875q-0.453125 -0.125 -1.671875 -0.125l-3.484375 0l0 4.859375zm10.943573 7.140625l0 -13.59375l1.8125 0l0 13.59375l-1.8125 0z" fill-rule="nonzero"></path><path fill="#cccccc" d="m28.227146 26.421259l81.528595 0l0 0c10.680466 0 19.338692 8.9700985 19.338692 20.035276c0 11.065178 -8.658226 20.035278 -19.338692 20.035278l-81.528595 0l0 0c-10.680466 0 -19.338696 -8.9701 -19.338696 -20.035278c0 -11.065178 8.658229 -20.035276 19.338696 -20.035276z" fill-rule="nonzero"></path><path stroke="#ffffff" stroke-width="2.0" stroke-linejoin="round" stroke-linecap="butt" d="m28.227146 26.421259l81.528595 0l0 0c10.680466 0 19.338692 8.9700985 19.338692 20.035276c0 11.065178 -8.658226 20.035278 -19.338692 20.035278l-81.528595 0l0 0c-10.680466 0 -19.338696 -8.9701 -19.338696 -20.035278c0 -11.065178 8.658229 -20.035276 19.338696 -20.035276z" fill-rule="nonzero"></path><path fill="#000000" d="m57.164227 42.536533l4.125 -10.734373l1.515625 0l4.406254 10.734373l-1.625 0l-1.25 -3.25l-4.484379 0l-1.1875 3.25l-1.5 0zm3.09375 -4.40625l3.640625 0l-1.125 -2.984375q-0.515625 -1.34375 -0.765625 -2.21875q-0.203125 1.03125 -0.578125 2.046875l-1.171875 3.15625zm6.697483 4.59375l3.109375 -11.109373l1.0625 0l-3.109375 11.109373l-1.0625 0zm5.1657257 -0.1875l0 -10.734373l4.03125 0q1.234375 0 1.96875 0.3281231q0.75 0.328125 1.171875 1.0q0.421875 0.671875 0.421875 1.421875q0 0.6875 -0.375 1.296875q-0.375 0.59375 -1.125 0.96875q0.96875 0.296875 1.484375 0.984375q0.53125 0.6875 0.53125 1.625q0 0.75 -0.328125 1.40625q-0.3125 0.640625 -0.78125 1.0q-0.46875 0.34375 -1.171875 0.53125q-0.703125 0.171875 -1.734375 0.171875l-4.09375 0zm1.421875 -6.21875l2.328125 0q0.9375 0 1.359375 -0.125q0.53125 -0.171875 0.796875 -0.546875q0.28125 -0.375 0.28125 -0.9375q0 -0.53125 -0.25 -0.9375q-0.25 -0.40625 -0.734375 -0.546875q-0.46875 -0.15625 -1.625 -0.15625l-2.15625 0l0 3.25zm0 4.953125l2.671875 0q0.6875 0 0.96875 -0.046875q0.5 -0.09375 0.828125 -0.296875q0.328125 -0.203125 0.53125 -0.59375q0.21875 -0.390625 0.21875 -0.90625q0 -0.609375 -0.3125 -1.046875q-0.296875 -0.4375 -0.84375 -0.609375q-0.546875 -0.1875 -1.578125 -0.1875l-2.484375 0l0 3.6875z" fill-rule="nonzero"></path><path fill="#000000" d="m33.581615 60.536533l0 -10.734375l7.234375 0l0 1.265625l-5.8125 0l0 3.328125l5.03125 0l0 1.265625l-5.03125 0l0 4.875l-1.421875 0zm8.686996 0l0 -7.78125l1.1875 0l0 1.1875q0.453125 -0.828125 0.84375 -1.09375q0.390625 -0.265625 0.84375 -0.265625q0.671875 0 1.359375 0.421875l-0.453125 1.21875q-0.484375 -0.28125 -0.96875 -0.28125q-0.4375 0 -0.78125 0.265625q-0.34375 0.25 -0.484375 0.71875q-0.21875 0.703125 -0.21875 1.53125l0 4.078125l-1.328125 0zm9.974396 -0.953125q-0.734375 0.609375 -1.40625 0.875q-0.671875 0.25 -1.453125 0.25q-1.28125 0 -1.96875 -0.625q-0.6875 -0.625 -0.6875 -1.59375q0 -0.578125 0.25 -1.046875q0.265625 -0.46875 0.6875 -0.75q0.421875 -0.296875 0.953125 -0.4375q0.375 -0.109375 1.171875 -0.203125q1.59375 -0.1875 2.34375 -0.453125q0.015625 -0.265625 0.015625 -0.34375q0 -0.8125 -0.375 -1.140625q-0.515625 -0.4375 -1.5 -0.4375q-0.9375 0 -1.390625 0.328125q-0.4375 0.3125 -0.640625 1.140625l-1.296875 -0.171875q0.171875 -0.828125 0.578125 -1.328125q0.40625 -0.515625 1.171875 -0.78125q0.765625 -0.28125 1.765625 -0.28125q1.0 0 1.609375 0.234375q0.625 0.234375 0.921875 0.59375q0.296875 0.34375 0.40625 0.890625q0.0625 0.34375 0.0625 1.21875l0 1.75q0 1.84375 0.078125 2.328125q0.09375 0.484375 0.34375 0.9375l-1.375 0q-0.203125 -0.40625 -0.265625 -0.953125zm-0.109375 -2.953125q-0.71875 0.296875 -2.15625 0.5q-0.8125 0.125 -1.15625 0.265625q-0.328125 0.140625 -0.515625 0.421875q-0.171875 0.28125 -0.171875 0.625q0 0.53125 0.390625 0.890625q0.40625 0.34375 1.171875 0.34375q0.765625 0 1.359375 -0.328125q0.59375 -0.34375 0.875 -0.921875q0.203125 -0.4375 0.203125 -1.3125l0 -0.484375zm3.1823578 3.90625l0 -7.78125l1.1875 0l0 1.09375q0.359375 -0.578125 0.96875 -0.921875q0.609375 -0.34375 1.390625 -0.34375q0.859375 0 1.40625 0.359375q0.5625 0.359375 0.78125 1.0q0.921875 -1.359375 2.40625 -1.359375q1.1562538 0 1.7812538 0.640625q0.625 0.640625 0.625 1.96875l0 5.34375l-1.3125 0l0 -4.90625q0 -0.78125 -0.125 -1.125q-0.125 -0.359375 -0.4687538 -0.5625q-0.34375 -0.21875 -0.796875 -0.21875q-0.8125 0 -1.359375 0.546875q-0.546875 0.546875 -0.546875 1.75l0 4.515625l-1.3125 0l0 -5.046875q0 -0.890625 -0.328125 -1.328125q-0.3125 -0.4375 -1.046875 -0.4375q-0.5625 0 -1.03125 0.296875q-0.46875 0.296875 -0.6875 0.859375q-0.203125 0.5625 -0.203125 1.625l0 4.03125l-1.328125 0zm17.5369 -2.5l1.359375 0.15625q-0.3125 1.203125 -1.1875 1.859375q-0.875 0.65625 -2.234375 0.65625q-1.703125 0 -2.703125 -1.046875q-1.0 -1.046875 -1.0 -2.953125q0 -1.953125 1.015625 -3.03125q1.015625 -1.09375 2.625 -1.09375q1.5625 0 2.546875 1.0625q0.984375 1.0625 0.984375 2.984375q0 0.125 0 0.359375l-5.8125 0q0.078125 1.28125 0.71875 1.96875q0.65625 0.671875 1.640625 0.671875q0.71875 0 1.234375 -0.375q0.515625 -0.390625 0.8125 -1.21875zm-4.328125 -2.140625l4.34375 0q-0.09375 -0.984375 -0.5 -1.46875q-0.625 -0.765625 -1.625 -0.765625q-0.921875 0 -1.546875 0.609375q-0.609375 0.609375 -0.671875 1.625zm8.588608 4.640625l-2.375 -7.78125l1.359375 0l1.234375 4.5l0.46875 1.65625q0.03125 -0.125 0.40625 -1.59375l1.234375 -4.5625l1.34375 0l1.171875 4.515625l0.390625 1.484375l0.4375 -1.5l1.34375 -4.5l1.28125 0l-2.4375 7.78125l-1.359375 0l-1.25 -4.65625l-0.296875 -1.328125l-1.578125 5.984375l-1.375 0zm8.662399 -3.890625q0 -2.15625 1.203125 -3.203125q1.0 -0.859375 2.4375 -0.859375q1.609375 0 2.625 1.046875q1.015625 1.046875 1.015625 2.90625q0 1.5 -0.453125 2.359375q-0.4375 0.859375 -1.3125 1.34375q-0.859375 0.46875 -1.875 0.46875q-1.625 0 -2.640625 -1.046875q-1.0 -1.046875 -1.0 -3.015625zm1.359375 0q0 1.5 0.640625 2.25q0.65625 0.734375 1.640625 0.734375q0.984375 0 1.640625 -0.75q0.65625 -0.75 0.65625 -2.28125q0 -1.4375 -0.65625 -2.171875q-0.65625 -0.75 -1.640625 -0.75q-0.984375 0 -1.640625 0.734375q-0.640625 0.734375 -0.640625 2.234375zm7.260483 3.890625l0 -7.78125l1.1875 0l0 1.1875q0.453125 -0.828125 0.84375 -1.09375q0.390625 -0.265625 0.84375 -0.265625q0.671875 0 1.359375 0.421875l-0.453125 1.21875q-0.484375 -0.28125 -0.96875 -0.28125q-0.4375 0 -0.78125 0.265625q-0.34375 0.25 -0.484375 0.71875q-0.21875 0.703125 -0.21875 1.53125l0 4.078125l-1.328125 0zm4.9118958 0l0 -10.734375l1.3125 0l0 6.125l3.125 -3.171875l1.703125 0l-2.96875 2.890625l3.265625 4.890625l-1.625 0l-2.5625 -3.984375l-0.9375 0.90625l0 3.078125l-1.3125 0z" fill-rule="nonzero"></path><path fill="#ffd966" d="m197.97507 376.3441l0 0c0 -6.70874 5.438492 -12.147247 12.147217 -12.147247l362.38272 0c3.2216187 0 6.3113403 1.2798157 8.5894165 3.5578613c2.2780151 2.2780457 3.5578003 5.367737 3.5578003 8.589386l0 48.587433c0 6.7087097 -5.4384766 12.147217 -12.147217 12.147217l-362.38272 0l0 0c-6.708725 0 -12.147217 -5.438507 -12.147217 -12.147217z" fill-rule="nonzero"></path><path stroke="#ffffff" stroke-width="4.0" stroke-linejoin="round" stroke-linecap="butt" d="m197.97507 376.3441l0 0c0 -6.70874 5.438492 -12.147247 12.147217 -12.147247l362.38272 0c3.2216187 0 6.3113403 1.2798157 8.5894165 3.5578613c2.2780151 2.2780457 3.5578003 5.367737 3.5578003 8.589386l0 48.587433c0 6.7087097 -5.4384766 12.147217 -12.147217 12.147217l-362.38272 0l0 0c-6.708725 0 -12.147217 -5.438507 -12.147217 -12.147217z" fill-rule="nonzero"></path><path fill="#000000" d="m333.7355 417.7178l0 -34.359375l15.234375 0q4.59375 0 6.984375 0.921875q2.390625 0.921875 3.8125 3.265625q1.4375 2.34375 1.4375 5.1875q0 3.65625 -2.375 6.171875q-2.359375 2.5 -7.3125 3.171875q1.8125 0.875 2.75 1.71875q1.984375 1.828125 3.765625 4.5625l5.984375 9.359375l-5.71875 0l-4.546875 -7.15625q-2.0 -3.09375 -3.296875 -4.734375q-1.28125 -1.640625 -2.296875 -2.296875q-1.015625 -0.65625 -2.078125 -0.90625q-0.765625 -0.171875 -2.53125 -0.171875l-5.265625 0l0 15.265625l-4.546875 0zm4.546875 -19.203125l9.765625 0q3.125 0 4.875 -0.640625q1.765625 -0.640625 2.671875 -2.0625q0.921875 -1.421875 0.921875 -3.078125q0 -2.4375 -1.78125 -4.0q-1.765625 -1.578125 -5.578125 -1.578125l-10.875 0l0 11.359375zm46.539062 11.1875l4.359375 0.53125q-1.03125 3.828125 -3.828125 5.9375q-2.78125 2.109375 -7.109375 2.109375q-5.46875 0 -8.671875 -3.359375q-3.1875 -3.375 -3.1875 -9.4375q0 -6.28125 3.234375 -9.75q3.234375 -3.46875 8.390625 -3.46875q4.984375 0 8.140625 3.40625q3.171875 3.390625 3.171875 9.546875q0 0.375 -0.015625 1.125l-18.5625 0q0.234375 4.109375 2.3125 6.296875q2.09375 2.171875 5.203125 2.171875q2.328125 0 3.96875 -1.21875q1.640625 -1.21875 2.59375 -3.890625zm-13.84375 -6.828125l13.890625 0q-0.28125 -3.140625 -1.59375 -4.703125q-2.015625 -2.4375 -5.21875 -2.4375q-2.90625 0 -4.890625 1.953125q-1.984375 1.9375 -2.1875 5.1875zm39.648438 14.84375l0 -3.140625q-2.359375 3.703125 -6.953125 3.703125q-2.984375 0 -5.484375 -1.640625q-2.484375 -1.640625 -3.859375 -4.578125q-1.375 -2.953125 -1.375 -6.765625q0 -3.734375 1.234375 -6.765625q1.25 -3.03125 3.734375 -4.640625q2.484375 -1.625 5.5625 -1.625q2.25 0 4.0 0.953125q1.765625 0.9375 2.859375 2.46875l0 -12.328125l4.203125 0l0 34.359375l-3.921875 0zm-13.328125 -12.421875q0 4.78125 2.015625 7.15625q2.015625 2.359375 4.75 2.359375q2.765625 0 4.703125 -2.265625q1.9375 -2.265625 1.9375 -6.90625q0 -5.109375 -1.96875 -7.5q-1.96875 -2.390625 -4.859375 -2.390625q-2.8125 0 -4.703125 2.296875q-1.875 2.296875 -1.875 7.25zm23.898438 -17.09375l0 -4.84375l4.21875 0l0 4.84375l-4.21875 0zm0 29.515625l0 -24.890625l4.21875 0l0 24.890625l-4.21875 0zm8.9609375 -7.4375l4.171875 -0.65625q0.34375 2.515625 1.953125 3.859375q1.609375 1.328125 4.484375 1.328125q2.90625 0 4.3125 -1.1875q1.40625 -1.1875 1.40625 -2.78125q0 -1.421875 -1.234375 -2.25q-0.875 -0.5625 -4.3125 -1.421875q-4.640625 -1.171875 -6.4375 -2.03125q-1.796875 -0.859375 -2.71875 -2.359375q-0.921875 -1.515625 -0.921875 -3.34375q0 -1.671875 0.75 -3.078125q0.765625 -1.421875 2.078125 -2.359375q0.984375 -0.734375 2.6875 -1.234375q1.703125 -0.5 3.640625 -0.5q2.9375 0 5.140625 0.84375q2.21875 0.84375 3.265625 2.28125q1.0625 1.4375 1.46875 3.859375l-4.125 0.5625q-0.28125 -1.921875 -1.640625 -3.0q-1.34375 -1.078125 -3.796875 -1.078125q-2.90625 0 -4.15625 0.96875q-1.234375 0.953125 -1.234375 2.234375q0 0.828125 0.515625 1.484375q0.515625 0.671875 1.609375 1.125q0.640625 0.234375 3.734375 1.078125q4.46875 1.1875 6.234375 1.953125q1.78125 0.765625 2.78125 2.21875q1.015625 1.453125 1.015625 3.609375q0 2.109375 -1.234375 3.96875q-1.234375 1.859375 -3.5625 2.890625q-2.3125 1.015625 -5.234375 1.015625q-4.859375 0 -7.40625 -2.015625q-2.53125 -2.015625 -3.234375 -5.984375z" fill-rule="nonzero"></path><path fill="#000000" fill-opacity="0.0" d="m391.31366 319.01837l0 45.165344" fill-rule="nonzero"></path><path stroke="#ffffff" stroke-width="4.0" stroke-linejoin="round" stroke-linecap="butt" d="m391.31366 319.01837l0 45.165344" fill-rule="nonzero"></path><path fill="#000000" fill-opacity="0.0" d="m129.09444 196.59564l34.44026 0l0 85.98425l34.44162 0" fill-rule="nonzero"></path><path stroke="#ffffff" stroke-width="2.0" stroke-linejoin="round" stroke-linecap="butt" d="m129.09444 196.59564l34.44026 0l0 85.98425l34.44162 0" fill-rule="nonzero"></path><path fill="#000000" fill-opacity="0.0" d="m129.09444 251.55103l34.44026 0l0 31.02362l34.44162 0" fill-rule="nonzero"></path><path stroke="#ffffff" stroke-width="2.0" stroke-linejoin="round" stroke-linecap="butt" d="m129.09444 251.55103l34.44026 0l0 31.02362l34.44162 0" fill-rule="nonzero"></path><path fill="#000000" fill-opacity="0.0" d="m129.09444 306.5064l34.44026 0l0 -23.937012l34.44162 0" fill-rule="nonzero"></path><path stroke="#ffffff" stroke-width="2.0" stroke-linejoin="round" stroke-linecap="butt" d="m129.09444 306.5064l34.44026 0l0 -23.937012l34.44162 0" fill-rule="nonzero"></path><path fill="#000000" fill-opacity="0.0" d="m129.09444 361.4618l34.44026 0l0 -78.897644l34.44162 0" fill-rule="nonzero"></path><path stroke="#ffffff" stroke-width="2.0" stroke-linejoin="round" stroke-linecap="butt" d="m129.09444 361.4618l34.44026 0l0 -78.897644l34.44162 0" fill-rule="nonzero"></path><path fill="#000000" fill-opacity="0.0" d="m129.09444 46.456535l34.44026 0l0 0.062992096l34.44162 0" fill-rule="nonzero"></path><path stroke="#ffffff" stroke-width="2.0" stroke-linejoin="round" stroke-linecap="butt" d="m129.09444 46.456535l34.44026 0l0 0.062992096l34.44162 0" fill-rule="nonzero"></path><path fill="#ea9999" d="m661.3832 145.4728l0 0c0 -9.607925 7.7887573 -17.396683 17.396667 -17.396683l69.584656 0l0 0c4.6138916 0 9.038757 1.8328705 12.30127 5.0953674c3.2625122 3.2625122 5.095398 7.6874237 5.095398 12.301315l0 156.13579c0 9.60791 -7.7887573 17.396667 -17.396667 17.396667l-69.584656 0c-9.60791 0 -17.396667 -7.7887573 -17.396667 -17.396667z" fill-rule="nonzero"></path><path stroke="#000000" stroke-width="1.0" stroke-linejoin="round" stroke-linecap="butt" d="m661.3832 145.4728l0 0c0 -9.607925 7.7887573 -17.396683 17.396667 -17.396683l69.584656 0l0 0c4.6138916 0 9.038757 1.8328705 12.30127 5.0953674c3.2625122 3.2625122 5.095398 7.6874237 5.095398 12.301315l0 156.13579c0 9.60791 -7.7887573 17.396667 -17.396667 17.396667l-69.584656 0c-9.60791 0 -17.396667 -7.7887573 -17.396667 -17.396667z" fill-rule="nonzero"></path><path fill="#000000" d="m685.4761 219.46068l0 -13.59375l5.125 0q1.359375 0 2.078125 0.125q1.0 0.171875 1.671875 0.640625q0.671875 0.46875 1.078125 1.3125q0.421875 0.84375 0.421875 1.84375q0 1.734375 -1.109375 2.9375q-1.09375 1.203125 -3.984375 1.203125l-3.484375 0l0 5.53125l-1.796875 0zm1.796875 -7.140625l3.515625 0q1.75 0 2.46875 -0.640625q0.734375 -0.65625 0.734375 -1.828125q0 -0.859375 -0.4375 -1.46875q-0.421875 -0.609375 -1.125 -0.796875q-0.453125 -0.125 -1.671875 -0.125l-3.484375 0l0 4.859375zm16.881042 7.140625l0 -1.453125q-1.140625 1.671875 -3.125 1.671875q-0.859375 0 -1.625 -0.328125q-0.75 -0.34375 -1.125 -0.84375q-0.359375 -0.5 -0.515625 -1.234375q-0.09375 -0.5 -0.09375 -1.5625l0 -6.109375l1.671875 0l0 5.46875q0 1.3125 0.09375 1.765625q0.15625 0.65625 0.671875 1.03125q0.515625 0.375 1.265625 0.375q0.75 0 1.40625 -0.375q0.65625 -0.390625 0.921875 -1.046875q0.28125 -0.671875 0.28125 -1.9375l0 -5.28125l1.671875 0l0 9.859375l-1.5 0zm3.9226074 3.78125l0 -13.640625l1.53125 0l0 1.28125q0.53125 -0.75 1.203125 -1.125q0.6875 -0.375 1.640625 -0.375q1.265625 0 2.234375 0.65625q0.96875 0.640625 1.453125 1.828125q0.5 1.1875 0.5 2.59375q0 1.515625 -0.546875 2.734375q-0.546875 1.203125 -1.578125 1.84375q-1.03125 0.640625 -2.171875 0.640625q-0.84375 0 -1.515625 -0.34375q-0.65625 -0.359375 -1.078125 -0.890625l0 4.796875l-1.671875 0zm1.515625 -8.65625q0 1.90625 0.765625 2.8125q0.78125 0.90625 1.875 0.90625q1.109375 0 1.890625 -0.9375q0.796875 -0.9375 0.796875 -2.921875q0 -1.875 -0.78125 -2.8125q-0.765625 -0.9375 -1.84375 -0.9375q-1.0625 0 -1.890625 1.0q-0.8125 1.0 -0.8125 2.890625zm8.860107 8.65625l0 -13.640625l1.53125 0l0 1.28125q0.53125 -0.75 1.203125 -1.125q0.6875 -0.375 1.640625 -0.375q1.265625 0 2.234375 0.65625q0.96875 0.640625 1.453125 1.828125q0.5 1.1875 0.5 2.59375q0 1.515625 -0.546875 2.734375q-0.546875 1.203125 -1.578125 1.84375q-1.03125 0.640625 -2.171875 0.640625q-0.84375 0 -1.515625 -0.34375q-0.65625 -0.359375 -1.078125 -0.890625l0 4.796875l-1.671875 0zm1.515625 -8.65625q0 1.90625 0.765625 2.8125q0.78125 0.90625 1.875 0.90625q1.109375 0 1.890625 -0.9375q0.796875 -0.9375 0.796875 -2.921875q0 -1.875 -0.78125 -2.8125q-0.765625 -0.9375 -1.84375 -0.9375q-1.0625 0 -1.890625 1.0q-0.8125 1.0 -0.8125 2.890625zm15.610046 1.703125l1.71875 0.21875q-0.40625 1.5 -1.515625 2.34375q-1.09375 0.828125 -2.8125 0.828125q-2.15625 0 -3.421875 -1.328125q-1.265625 -1.328125 -1.265625 -3.734375q0 -2.484375 1.265625 -3.859375q1.28125 -1.375 3.328125 -1.375q1.984375 0 3.234375 1.34375q1.25 1.34375 1.25 3.796875q0 0.140625 -0.015625 0.4375l-7.34375 0q0.09375 1.625 0.921875 2.484375q0.828125 0.859375 2.0625 0.859375q0.90625 0 1.546875 -0.46875q0.65625 -0.484375 1.046875 -1.546875zm-5.484375 -2.703125l5.5 0q-0.109375 -1.234375 -0.625 -1.859375q-0.796875 -0.96875 -2.078125 -0.96875q-1.140625 0 -1.9375 0.78125q-0.78125 0.765625 -0.859375 2.046875zm12.766357 4.375l0.234375 1.484375q-0.703125 0.140625 -1.265625 0.140625q-0.90625 0 -1.40625 -0.28125q-0.5 -0.296875 -0.703125 -0.75q-0.203125 -0.46875 -0.203125 -1.984375l0 -5.65625l-1.234375 0l0 -1.3125l1.234375 0l0 -2.4375l1.65625 -1.0l0 3.4375l1.6875 0l0 1.3125l-1.6875 0l0 5.75q0 0.71875 0.078125 0.921875q0.09375 0.203125 0.296875 0.328125q0.203125 0.125 0.578125 0.125q0.265625 0 0.734375 -0.078125z" fill-rule="nonzero"></path><path fill="#000000" d="m682.94666 241.46068l5.234375 -13.59375l1.9375 0l5.5625 13.59375l-2.046875 0l-1.59375 -4.125l-5.6875 0l-1.484375 4.125l-1.921875 0zm3.921875 -5.578125l4.609375 0l-1.40625 -3.78125q-0.65625 -1.703125 -0.96875 -2.8125q-0.265625 1.3125 -0.734375 2.59375l-1.5 4.0zm9.8029785 5.578125l0 -9.859375l1.5 0l0 1.40625q1.09375 -1.625 3.140625 -1.625q0.890625 0 1.640625 0.328125q0.75 0.3125 1.109375 0.84375q0.375 0.515625 0.53125 1.21875q0.09375 0.46875 0.09375 1.625l0 6.0625l-1.671875 0l0 -6.0q0 -1.015625 -0.203125 -1.515625q-0.1875 -0.515625 -0.6875 -0.8125q-0.5 -0.296875 -1.171875 -0.296875q-1.0625 0 -1.84375 0.671875q-0.765625 0.671875 -0.765625 2.578125l0 5.375l-1.671875 0zm9.703857 -2.9375l1.65625 -0.265625q0.140625 1.0 0.765625 1.53125q0.640625 0.515625 1.78125 0.515625q1.15625 0 1.703125 -0.46875q0.5625 -0.46875 0.5625 -1.09375q0 -0.5625 -0.484375 -0.890625q-0.34375 -0.21875 -1.703125 -0.5625q-1.84375 -0.46875 -2.5625 -0.796875q-0.703125 -0.34375 -1.078125 -0.9375q-0.359375 -0.609375 -0.359375 -1.328125q0 -0.65625 0.296875 -1.21875q0.3125 -0.5625 0.828125 -0.9375q0.390625 -0.28125 1.0625 -0.484375q0.671875 -0.203125 1.4375 -0.203125q1.171875 0 2.046875 0.34375q0.875 0.328125 1.28125 0.90625q0.421875 0.5625 0.578125 1.515625l-1.625 0.21875q-0.109375 -0.75 -0.65625 -1.171875q-0.53125 -0.4375 -1.5 -0.4375q-1.15625 0 -1.640625 0.390625q-0.484375 0.375 -0.484375 0.875q0 0.328125 0.203125 0.59375q0.203125 0.265625 0.640625 0.4375q0.25 0.09375 1.46875 0.4375q1.765625 0.46875 2.46875 0.765625q0.703125 0.296875 1.09375 0.875q0.40625 0.578125 0.40625 1.4375q0 0.828125 -0.484375 1.578125q-0.484375 0.734375 -1.40625 1.140625q-0.921875 0.390625 -2.078125 0.390625q-1.921875 0 -2.9375 -0.796875q-1.0 -0.796875 -1.28125 -2.359375zm10.015625 -8.75l0 -1.90625l1.671875 0l0 1.90625l-1.671875 0zm0 11.6875l0 -9.859375l1.671875 0l0 9.859375l-1.671875 0zm5.6760254 0l-1.546875 0l0 -13.59375l1.65625 0l0 4.84375q1.0625 -1.328125 2.703125 -1.328125q0.90625 0 1.71875 0.375q0.8125 0.359375 1.328125 1.03125q0.53125 0.65625 0.828125 1.59375q0.296875 0.9375 0.296875 2.0q0 2.53125 -1.25 3.921875q-1.25 1.375 -3.0 1.375q-1.75 0 -2.734375 -1.453125l0 1.234375zm-0.015625 -5.0q0 1.765625 0.46875 2.5625q0.796875 1.28125 2.140625 1.28125q1.09375 0 1.890625 -0.9375q0.796875 -0.953125 0.796875 -2.84375q0 -1.921875 -0.765625 -2.84375q-0.765625 -0.921875 -1.84375 -0.921875q-1.09375 0 -1.890625 0.953125q-0.796875 0.953125 -0.796875 2.75zm8.813232 5.0l0 -13.59375l1.671875 0l0 13.59375l-1.671875 0zm10.926086 -3.171875l1.71875 0.21875q-0.40625 1.5 -1.515625 2.34375q-1.09375 0.828125 -2.8125 0.828125q-2.15625 0 -3.421875 -1.328125q-1.265625 -1.328125 -1.265625 -3.734375q0 -2.484375 1.265625 -3.859375q1.28125 -1.375 3.328125 -1.375q1.984375 0 3.234375 1.34375q1.25 1.34375 1.25 3.796875q0 0.140625 -0.015625 0.4375l-7.34375 0q0.09375 1.625 0.921875 2.484375q0.828125 0.859375 2.0625 0.859375q0.90625 0 1.546875 -0.46875q0.65625 -0.484375 1.046875 -1.546875zm-5.484375 -2.703125l5.5 0q-0.109375 -1.234375 -0.625 -1.859375q-0.796875 -0.96875 -2.078125 -0.96875q-1.140625 0 -1.9375 0.78125q-0.78125 0.765625 -0.859375 2.046875z" fill-rule="nonzero"></path><path fill="#000000" fill-opacity="0.0" d="m661.3832 223.54068l-38.365234 0l0 -177.07086l-38.35913 0" fill-rule="nonzero"></path><path stroke="#ffffff" stroke-width="2.0" stroke-linejoin="round" stroke-linecap="butt" d="m661.3832 223.54068l-38.365234 0l0 -177.07086l-38.35913 0" fill-rule="nonzero"></path><path fill="#000000" fill-opacity="0.0" d="m661.3832 223.54068l-38.365234 0l0 -59.02362l-38.35913 0" fill-rule="nonzero"></path><path stroke="#ffffff" stroke-width="2.0" stroke-linejoin="round" stroke-linecap="butt" d="m661.3832 223.54068l-38.365234 0l0 -59.02362l-38.35913 0" fill-rule="nonzero"></path><path fill="#000000" fill-opacity="0.0" d="m661.3832 223.54068l-38.365234 0l0 59.02362l-38.35913 0" fill-rule="nonzero"></path><path stroke="#ffffff" stroke-width="2.0" stroke-linejoin="round" stroke-linecap="butt" d="m661.3832 223.54068l-38.365234 0l0 59.02362l-38.35913 0" fill-rule="nonzero"></path><path fill="#000000" fill-opacity="0.0" d="m661.3832 223.54068l-38.365234 0l0 177.10236l-38.35913 0" fill-rule="nonzero"></path><path stroke="#ffffff" stroke-width="2.0" stroke-linejoin="round" stroke-linecap="butt" d="m661.3832 223.54068l-38.365234 0l0 177.10236l-38.35913 0" fill-rule="nonzero"></path></g></svg>

