<svg xmlns="http://www.w3.org/2000/svg" xmlns:xlink="http://www.w3.org/1999/xlink" version="1.1" id="Layer_1" x="0px" y="0px" width="529.593px" height="161.125px" viewBox="0 0 529.593 161.125" enable-background="new 0 0 529.593 161.125" xml:space="preserve">
<g>
	<defs>
		<rect id="SVGID_1_" width="529.6" height="161.1"/>
	</defs>
	<clipPath id="SVGID_2_">
		<use xlink:href="#SVGID_1_" overflow="visible"/>
	</clipPath>
	<path clip-path="url(#SVGID_2_)" fill="#1A79BF" d="M87.226 50.62c7.152 19.5 28.8 29.5 48.3 22.4 c19.531-7.158 29.554-28.787 22.402-48.311c-7.165-19.518-28.787-29.548-48.318-22.396C90.097 9.5 80.1 31.1 87.2 50.6"/>
	<path clip-path="url(#SVGID_2_)" fill="#1A79BF" d="M39.629 120.659c-7.326 13.105-2.646 29.7 10.5 37 c13.106 7.3 29.7 2.6 37.007-10.46c7.326-13.113 2.646-29.677-10.467-37.008C63.524 102.9 47 107.6 39.6 120.7"/>
	<path clip-path="url(#SVGID_2_)" fill="#1A79BF" d="M0.3 68.062c-1.68 8.5 3.9 16.8 12.4 18.5 c8.53 1.7 16.808-3.869 18.482-12.398c1.687-8.53-3.862-16.814-12.398-18.495C10.258 54 2 59.5 0.3 68.1"/>
	<path clip-path="url(#SVGID_2_)" fill="#FFFFFF" d="M226.81 80.312c-1.545 0.006-2.234-0.676-2.504-2.137l-9.618-54.093 c-0.263-1.371 0.335-2.15 1.887-2.156l7.988-0.032c1.545-0.013 2 0.8 2.2 2.137l4.86 29.2 c0.708 4.4 0.7 12.4 0.7 12.456c0.083-0.431 2.195-8.69 3.727-12.392l11.806-29.36c0.592-1.378 1.281-2.15 2.826-2.157 l7.647-0.038c1.461-0.007 1.9 0.8 1.3 2.143l-22.435 54.241c-0.598 1.461-1.364 2.156-2.916 2.163L226.81 80.312z"/>
	<path clip-path="url(#SVGID_2_)" fill="#FFFFFF" d="M279.519 48.704c-0.798-4.461-0.766-15.72-0.766-15.72 c-0.083 0.341-2.774 11.871-4.391 15.656l-4.081 9.649l10.911-0.051L279.519 48.704z M284.031 21.6 c1.461-0.006 2.1 0.7 2.3 2.137l9.701 54.093c0.264 1.371-0.244 2.15-1.796 2.156l-7.557 0 c-1.545 0.007-2.067-0.766-2.331-2.137l-1.771-10.473l-15.983 0.07L262.383 78c-0.515 1.378-1.197 2.157-2.742 2.163l-7.133 0 c-1.461 0.007-1.976-0.766-1.384-2.143l22.434-54.241c0.593-1.461 1.449-2.156 2.91-2.163L284.031 21.616z"/>
	<path clip-path="url(#SVGID_2_)" fill="#FFFFFF" d="M320.598 31.069l-2.065 16.937l8.593-0.039 c5.929-0.026 9.444-1.764 10.023-6.064l0.502-3.521c0.084-0.689 0.078-1.204 0.078-1.551c-0.021-3.779-2.608-5.826-8.363-5.8 L320.598 31.069z M317.373 57.636l-2.311 20.033c-0.167 1.545-0.767 2.24-2.312 2.246l-7.474 0 c-1.204 0.006-2.156-0.419-1.905-2.221l6.456-53.996c0.161-1.552 0.844-2.24 2.305-2.247l17.445-0.077 c14.091-0.064 19.7 6 19.7 13.055c0.006 0.5 0 1.287-0.078 1.976l-0.824 7.5 c-0.573 5.156-3.476 9.894-10.769 12.167l6.546 21.449c0.438 1.371-0.766 2.24-2.228 2.246l-7.39 0 c-1.371 0.007-1.635-1.023-1.983-2.22l-6.107-20.001l-0.174 0.006L317.373 57.636z"/>
	<path clip-path="url(#SVGID_2_)" fill="#FFFFFF" d="M396.439 77.379c-0.167 1.461-0.676 2.15-2.227 2.156l-6.444 0 c-1.204 0.006-1.635-0.335-1.978-1.024l-13.279-28.382c-0.959-2.143-2.085-5.143-2.613-7.029l-4.049 34.4 c-0.167 1.461-0.676 2.15-2.228 2.156l-6.784 0.032c-1.545 0.007-2.067-0.676-1.899-2.137l6.366-54.17 c0.161-1.461 0.843-2.15 2.395-2.156l6.444-0.026c1.029-0.006 1.5 0.2 1.8 0.844l13.796 29.6 c0.785 1.7 1.8 4.5 2.2 6.006l4.056-34.394c0.167-1.461 0.849-2.15 2.311-2.157l6.785-0.032 c1.551-0.006 2 0.7 1.8 2.137L396.439 77.379z"/>
	<path clip-path="url(#SVGID_2_)" fill="#FFFFFF" d="M420.334 77.182c-0.167 1.545-0.766 2.234-2.311 2.247l-7.475 0 c-1.461 0.006-2.065-0.676-1.898-2.227l6.45-53.99c0.16-1.551 0.85-2.24 2.311-2.246l7.474-0.033 c1.545-0.013 2 0.7 1.8 2.221L420.334 77.182z"/>
	<path clip-path="url(#SVGID_2_)" fill="#FFFFFF" d="M464.397 35.645c0.083-0.689 0.083-0.605 0.083-0.856 c-0.019-3.611-2.689-5.401-7.847-5.382c-5.497 0.026-8.58 2.105-8.992 6.315l-0.084 0.863c-0.084 0.772-0.078 1.03-0.078 1.4 c0.008 2.3 1.6 3.1 2.9 3.598l14.207 5.26c5.678 2.1 8.9 6 8.9 11.13c0.006 0.431-0.078 1.294-0.162 2.1 l-0.571 5.845c-0.741 7.223-6.038 14.033-21.758 14.104c-14.009 0.065-19.364-5.838-19.396-12.456c0-0.341-0.006-0.94 0.161-2.06 l0.586-4.815c0.161-1.545 0.843-2.24 2.304-2.247l7.224-0.032c1.545-0.006 2 0.8 1.8 2.228l-0.412 3.3 c-0.084 0.689-0.077 1.204-0.077 1.635c0.013 3.6 3 5.2 8.5 5.202c5.755-0.026 9.102-2.022 9.682-6.315l0.334-2.408 c0.077-0.605 0.077-1.03 0.077-1.204c-0.012-2.838-3.456-4.28-6.552-5.471l-11.967-4.667c-4.308-1.7-7.416-5.382-7.437-10.023 c-0.006-0.431 0.078-1.204 0.162-2.06l0.495-4.3c0.824-7.223 5.259-14.033 20.818-14.104c13.834-0.065 18.6 5.8 18.6 12.2 c0 0.4 0 0.766-0.084 1.719l-0.32 3.521c-0.168 1.461-0.941 2.156-2.402 2.163l-7.216 0 c-1.377 0.006-1.976-0.509-1.815-2.144L464.397 35.645z"/>
	<path clip-path="url(#SVGID_2_)" fill="#FFFFFF" d="M496.923 44.259l18.475-0.084l2.562-21.41c0.167-1.551 0.85-2.24 2.4-2.247 l7.474-0.032c1.462-0.006 1.9 0.7 1.7 2.227l-6.45 53.99c-0.168 1.551-0.676 2.24-2.138 2.246l-7.473 0 c-1.552 0.006-2.067-0.76-1.905-2.221l2.729-22.962l-18.559 0.09l-2.729 22.956c-0.168 1.461-0.76 2.24-2.311 2.246l-7.474 0 c-1.461 0.007-2.066-0.676-1.899-2.221l6.45-53.995c0.167-1.552 0.85-2.241 2.311-2.247l7.475-0.032 c1.551-0.007 2 0.7 1.8 2.221L496.923 44.259z"/>
	<path clip-path="url(#SVGID_2_)" fill="#FFFFFF" d="M234.079 106.589c0.064-0.56 0.064-0.908 0.064-1.043 c-0.013-3.058-2.247-4.86-7.808-4.834c-6.122 0.032-8.684 2.124-9.083 5.883l-0.2 1.81c-0.07 0.489-0.064 0.766-0.064 0.9 c0.006 2 1.3 2.7 3 3.393l11.838 4.674c4.738 1.9 6.8 4.6 6.9 8.587c0 0.5 0 1.043-0.064 1.6 l-0.528 5.149c-0.599 5.703-4.609 10.731-16.641 10.782c-10.776 0.052-14.619-4.242-14.644-9.321c0-0.206-0.007-0.9 0.058-1.596 l0.405-3.76c0.129-0.973 0.547-1.391 1.448-1.397l4.107-0.019c0.972 0 1.2 0.5 1.1 1.384l-0.335 2.9 c-0.064 0.625-0.058 1.114-0.058 1.32c0.013 3.2 2.5 4.9 8.3 4.899c6.257-0.026 9.096-2.195 9.566-5.955l0.47-3.547 c0.071-0.489 0.064-0.695 0.064-0.907c-0.006-2.363-2.446-3.464-5.234-4.564l-9.894-3.921c-4.248-1.718-6.559-4.691-6.572-8.169 c0-0.212-0.006-0.836 0.064-1.467l0.4-3.476c0.669-5.704 4.049-10.726 16.009-10.783c10.57-0.051 14.1 4.2 14.2 9.2 c0 0.4 0 0.907-0.064 1.461l-0.335 3.064c-0.064 0.9-0.547 1.326-1.449 1.326l-4.107 0.02c-0.83 0.006-1.248-0.271-1.12-1.314 L234.079 106.589z"/>
	<path clip-path="url(#SVGID_2_)" fill="#FFFFFF" d="M274.9 107.024c0.063-0.489 0.136-0.972 0.136-1.255 c-0.02-3.265-2.601-5.13-8.44-5.105c-6.05 0.033-9.236 2.337-9.707 6.097l-2.878 24.424c-0.071 0.481-0.135 0.972-0.135 1.2 c0.02 3.3 2.6 5.1 8.4 5.111c6.257-0.032 9.167-2.337 9.637-6.097L274.9 107.024z M250.207 105.7 c0.669-5.703 4.68-10.731 16.846-10.789c10.713-0.052 14.8 4.2 14.9 9.32c0 0.4 0 1.043-0.065 1.598l-3.142 26.7 c-0.669 5.703-4.75 10.731-16.917 10.789c-10.782 0.045-14.831-4.178-14.857-9.251c0-0.489 0.065-1.049 0.129-1.673L250.207 105.7 z"/>
	<path clip-path="url(#SVGID_2_)" fill="#FFFFFF" d="M320.598 95.201c0.9-0.007 1.3 0.3 1.2 1.319l-0.406 3.1 c-0.135 0.973-0.547 1.326-1.454 1.326l-19.955 0.09l-1.745 14.13l18.777-0.09c0.901-0.006 1.3 0.3 1.2 1.313l-0.399 3.2 c-0.135 0.9-0.553 1.319-1.455 1.325l-18.707 0.085l-2.478 20.181c-0.135 0.972-0.412 1.39-1.384 1.396l-4.242 0 c-0.901 0.006-1.32-0.412-1.191-1.384l5.292-44.533c0.135-0.972 0.547-1.392 1.454-1.397L320.598 95.201z"/>
	<path clip-path="url(#SVGID_2_)" fill="#FFFFFF" d="M355.851 95.037c0.901-0.006 1.3 0.3 1.2 1.32l-0.335 3.1 c-0.135 0.972-0.553 1.326-1.455 1.326l-11.124 0.052l-4.821 40.143c-0.135 0.979-0.412 1.396-1.384 1.396l-4.242 0 c-0.907 0-1.325-0.411-1.19-1.39l4.822-40.143l-11.125 0.051c-0.907 0.007-1.325-0.341-1.19-1.313l0.335-3.135 c0.135-0.972 0.547-1.318 1.455-1.326L355.851 95.037z"/>
	<path clip-path="url(#SVGID_2_)" fill="#FFFFFF" d="M394.236 125.107c0.29 2.1 0.4 6 0.4 6.1 c0.071-0.206 1.095-4.177 1.848-6.128l10.719-28.974c0.341-0.837 0.824-1.326 1.731-1.333l3.823-0.013 c0.901-0.007 1.2 0.4 0.8 1.313l-16.557 44.72c-0.342 0.907-0.895 1.326-1.803 1.332l-4.171 0 c-0.831 0-1.256-0.482-1.397-1.319l-3.888-29.464c-0.219-1.667-0.374-5.214-0.374-5.491c-0.141 0.348-1.023 3.972-1.577 5.6 l-10.988 29.469c-0.341 0.902-0.823 1.326-1.731 1.326l-4.171 0.02c-0.837 0.006-1.326-0.482-1.468-1.312l-5.975-44.617 c-0.147-0.901 0.2-1.32 1.172-1.326l4.313-0.02c0.9-0.007 1.2 0.5 1.3 1.313l3.888 28.9 c0.219 1.9 0.4 5.1 0.4 5.427c0.07-0.212 1.3-3.972 1.854-5.433l10.783-28.981c0.27-0.836 0.759-1.326 1.73-1.326 l3.966-0.019c0.901-0.006 1.2 0.5 1.4 1.312L394.236 125.107z"/>
	<path clip-path="url(#SVGID_2_)" fill="#FFFFFF" d="M431.028 111.795c-0.572-2.987-0.741-10.287-0.741-10.287 c-0.205 0.624-1.918 7.377-3.082 10.164l-5.439 12.823l11.612-0.057L431.028 111.795z M433.313 94.7 c0.901-0.006 1.3 0.4 1.5 1.313l8.272 44.604c0.142 0.837-0.199 1.326-1.107 1.326l-4.312 0 c-0.901 0.007-1.32-0.477-1.461-1.313l-1.932-10.769l-14.671 0.07l-4.538 10.795c-0.348 0.837-0.688 1.326-1.667 1.3 l-4.029 0.021c-0.973 0.006-1.186-0.483-0.844-1.32l18.707-44.726c0.418-0.908 0.9-1.326 1.803-1.333L433.313 94.678z"/>
	<path clip-path="url(#SVGID_2_)" fill="#FFFFFF" d="M461.849 100.319l-2.079 17.046l8.626-0.039 c6.328-0.032 9.309-1.924 9.778-5.748l0.535-4.59c0.063-0.489 0.063-0.907 0.063-1.256c-0.019-3.617-2.388-5.484-8.232-5.451 L461.849 100.319z M457.028 140.462c-0.137 0.978-0.412 1.397-1.385 1.397l-4.241 0.019c-0.767 0.007-1.32-0.271-1.191-1.384 l5.291-44.526c0.136-0.972 0.547-1.396 1.455-1.396l13.769-0.065c10.776-0.051 14.8 4.4 14.9 9.8 c0.007 0.4 0 0.973-0.059 1.532l-0.733 6.888c-0.471 4.242-2.954 7.938-9.276 9.566l6.135 18.1 c0.283 0.837-0.412 1.397-1.312 1.397l-4.242 0.025c-0.837 0-1.05-0.625-1.327-1.391l-5.851-17.284l-9.805 0.045L457.028 140.462z"/>
	<path clip-path="url(#SVGID_2_)" fill="#FFFFFF" d="M492.706 141.688c-0.901 0.006-1.326-0.412-1.191-1.384l5.291-44.533 c0.135-0.973 0.548-1.392 1.455-1.392l23.778-0.114c0.902 0 1.3 0.3 1.2 1.318l-0.399 3.1 c-0.135 0.973-0.554 1.326-1.455 1.332l-18.217 0.084l-1.674 14.054l17.033-0.078c0.907-0.006 1.3 0.3 1.1 1.312l-0.335 3 c-0.136 0.901-0.547 1.319-1.448 1.326l-17.04 0.077l-1.944 16.074l18.984-0.091c0.972-0.007 1.4 0.3 1.3 1.249l-0.406 3.2 c-0.135 0.972-0.482 1.326-1.454 1.326L492.706 141.688z"/>
</g>
</svg>
